/* XPM */
static char *big_naruto[] = {
/* columns rows colors chars-per-pixel */
"64 64 226 2 ",
"   c #0A0A0A",
".  c #121111",
"X  c #152E3B",
"o  c #19393C",
"O  c #33312A",
"+  c #233F3C",
"@  c #783111",
"#  c #1A473A",
"$  c #29493B",
"%  c #29573C",
"&  c #315031",
"*  c #355A3A",
"=  c #2C643B",
"-  c #35633D",
";  c #3B643C",
":  c #386A38",
">  c #3C6C3C",
",  c #2E7239",
"<  c #3B753C",
"1  c #476E2D",
"2  c #456B3C",
"3  c #43733C",
"4  c #4A743D",
"5  c #467A39",
"6  c #4B7C3C",
"7  c #527B3A",
"8  c #657C33",
"9  c #132941",
"0  c #1B3845",
"q  c #213A41",
"w  c #203F48",
"e  c #1B4947",
"r  c #1B5748",
"t  c #1C5356",
"y  c #234543",
"u  c #274C46",
"i  c #255343",
"p  c #2C5444",
"a  c #2D5B43",
"s  c #28584A",
"d  c #355A47",
"f  c #325D44",
"g  c #275954",
"h  c #335651",
"j  c #1D644C",
"k  c #2C6245",
"l  c #2C624B",
"z  c #2A6A48",
"x  c #336543",
"c  c #3B6445",
"v  c #326B44",
"b  c #3C6D44",
"n  c #35644B",
"m  c #336B4A",
"M  c #3C684B",
"N  c #2E7749",
"B  c #357547",
"V  c #3C7343",
"C  c #3C7A43",
"Z  c #3C724A",
"A  c #3C7D4B",
"S  c #2B6857",
"D  c #336A52",
"F  c #376854",
"G  c #267556",
"H  c #397756",
"J  c #337B5A",
"K  c #2C6C64",
"L  c #367A64",
"P  c #426643",
"I  c #436B44",
"U  c #476847",
"Y  c #447443",
"T  c #447C43",
"R  c #4B7C44",
"E  c #42724B",
"W  c #4B7648",
"Q  c #437A4C",
"!  c #537B47",
"~  c #417855",
"^  c #567D54",
"/  c #637C4A",
"(  c #706B58",
")  c #A85B20",
"_  c #DB4B27",
"`  c #31813D",
"'  c #5B932C",
"]  c #4A853B",
"[  c #598837",
"{  c #54843C",
"}  c #548A3C",
"|  c #4A9739",
" . c #5C943B",
".. c #57983B",
"X. c #6D9A2B",
"o. c #658D3C",
"O. c #67973A",
"+. c #64943C",
"@. c #6C9C3B",
"#. c #749B3C",
"$. c #5FA02F",
"%. c #58A739",
"&. c #6BA52B",
"*. c #7AB02E",
"=. c #67A738",
"-. c #6AA33C",
";. c #76A73B",
":. c #6AB53A",
">. c #78B837",
",. c #7AB33C",
"<. c #7AC43A",
"1. c #3B8546",
"2. c #2D8956",
"3. c #3A8859",
"4. c #2A965E",
"5. c #398666",
"6. c #31906E",
"7. c #448443",
"8. c #4C8443",
"9. c #4B8C43",
"0. c #4D844B",
"q. c #478A49",
"w. c #538344",
"e. c #5D8442",
"r. c #538B44",
"t. c #5B8B43",
"y. c #52844C",
"u. c #548B4C",
"i. c #5B8B4B",
"p. c #4B9648",
"a. c #569647",
"s. c #599343",
"d. c #5C9B4C",
"f. c #478854",
"g. c #558653",
"h. c #479657",
"j. c #559856",
"k. c #648B47",
"l. c #629442",
"z. c #639D43",
"x. c #6B9C42",
"c. c #6A9749",
"v. c #629D4A",
"b. c #769849",
"n. c #6C9351",
"m. c #5CA244",
"M. c #58A44A",
"N. c #53A856",
"B. c #59B557",
"V. c #6BA343",
"C. c #6BAB42",
"Z. c #6CA54A",
"A. c #66AA48",
"S. c #77A647",
"D. c #74AB45",
"F. c #7AAC4C",
"G. c #68B545",
"H. c #77B647",
"J. c #66A953",
"K. c #79A655",
"L. c #69B855",
"P. c #77B958",
"I. c #479766",
"U. c #4C9867",
"Y. c #54AB69",
"T. c #71B166",
"R. c #7CC845",
"E. c #74CA4E",
"W. c #6DC464",
"Q. c #82AB34",
"!. c #86B83A",
"~. c #97BE36",
"^. c #F08E0E",
"/. c #8FCA2F",
"(. c #88C739",
"). c #94C838",
"_. c #96D73C",
"`. c #A1CA36",
"'. c #AFD933",
"]. c #A5DA3A",
"[. c #8BE23E",
"{. c #9BE33A",
"}. c #A7E43A",
"|. c #B7E83B",
" X c #B5F035",
".X c #FAC43C",
"XX c #C5EA3B",
"oX c #C4F939",
"OX c #D7FB3B",
"+X c #E4FF3C",
"@X c #889E56",
"#X c #85AB47",
"$X c #82B342",
"%X c #87B846",
"&X c #97BC45",
"*X c #88B753",
"=X c #8DB355",
"-X c #A5BD45",
";X c #858477",
":X c #EB9659",
">X c #87C647",
",X c #91C442",
"<X c #99C847",
"1X c #8BD746",
"2X c #99D645",
"3X c #90D255",
"4X c #A3CB45",
"5X c #A8D946",
"6X c #B3D948",
"7X c #A1C753",
"8X c #B5D052",
"9X c #96E445",
"0X c #A8E645",
"qX c #B8E546",
"wX c #B9F747",
"eX c #C0D651",
"rX c #E0D051",
"tX c #C9F744",
"yX c #CDF14A",
"uX c #D3F552",
"iX c #E6FF4F",
"pX c #CBF463",
"aX c #1010FA",
"sX c #3243FA",
"dX c #F5B2A2",
"fX c #FFFFFC",
/* pixels */
"$ ' * o * x.&  .H.V.% !._...m >.)...5 : = > /.*.O.(.;. ./.b p % w.E.3.` i ..] 4 (.*.&.2 5 ] * M < , 2 Q.X.} ..>X,...] # 3 * & Q.",
"o , 7 : : 5 4 Y Y q.Z 0.] | i b C.C.w.$ i i s.T V V : m W @ @ @ @ } } @ @ @ @ w.x.l.4 7 5 @.z.x.} f ! W ! w.5 < > = 5 d W Z.% * ",
"5 ' [ 7 Q.'.> a % U g.d d c a v Z E R l Y Y d.M Z b | %.H.@ @ fX@ @ @ @ fX@ @ @ @ 6 [ [ `.%X[ [ ; 2 4 6 [ { 2 T C Y +.;.n.d.m ^ ",
"%.5 * 7 '. X> - x % d.E E y ! e.q q I 3 M b r.b Z b @ @ @ @ @ .XfX.X.X.X.X.X.X@ @ - @ @ #.x.<X<XQ.7 l.l.@.#X!.7 [ E ).x.z 3.l k.",
"` ..> O.{.&.2 x x * k.E E y ! / q q c 4 M c p.b Z Z @ @ @ @ @ .XfX.X.X.X.X.X.X@ @ - @ @ #.V.<X<XQ.7 l.l.@.S.Q.8 [ I oX0XD.V n { ",
"/., [ /...: v Y Y 9.Y I V s % ,Xi.u.p d Z E q.m @ @ @ .XfX@ @ .X.X.X.X.X.X.X.X@ .X@ @ @ +.-.4 4 6 5 Z.Z.$X!.b.[ k.R !.0X[.3 Y r.",
"&.= *.&.: } 2 Y Y < * / o.%XS...j.M.P 6 ' | f ! u.t.A @ .XfXfX.X.X.X.X.X.X.X.X.X.X@ @ @ @ 6 b b Y @.+.+.4 % : { 7 ; 2 < E.p.d x ",
"& &.:.: $ =.{ [ [ } ! P P 7 (.,.u.u.c.!.6 5 f t.7.7.@ @ .X.X.X.X.X.X.X.X.X.X.X.X@ @ .X.X@ .... .9.s.W R ; +.]././.[ 8.0 H H =X=X",
"< % $ $ $ 5 { [ ] } x.#X#Xs %               3 ' @ @ @ .X.XsXsXsXsXsXsXsXsXsXsXsXsXO .X.X@ ] Y T ] R < V 4 X.o.4 4 ] 1.g h 0 #XiX",
"% 1.$.2 t.x./././.<.s.,X,X      r # @.oX        fXfXfXsXsXO O O O sXsX;XfXfXfX;X;X;XO O @ %.0.y.@.&.{ 7 [ *.o.-.;.' Q h q 0 R |.",
"z | 6 & Y (.!.).).!...,X(.      $ e @.oX        fXfXfXsXsXO O O O sXsX;XfXfXfX;X;X;XO O @ a.y.y.@.&.[ { [ ;.o.#.@.$.H.c.w.g e :.",
"` , % 7 #X~.& * * :.C.      8 -XeXeXb.Q.!.!.O.}         sXsXsXsXsXsXsX;XfXfXfX;XfX;XsXsX>.v.t. .} 3 -.O.+.`.|.`.`.[ o b d.q.e B ",
", # # X.,XF.; x -         7 % % -X-XiX'.&.&.#X#X        :XrXrXsXsXsXsXsXsXsXsXsXsXsXsXsXt.,X#.@.Y 3 R ]  .)./.7 6 f $ : h.h.3.S ",
"' ;.~.`.;.E 7 * * p ).'.'.O. .2 U 2 `./.-.V.            :XrXrXdX:X:X:X  :XdXdX:X    { } Q.6X-X&X#.; f * ! *.7 ! !  .M 7.t g 6.g ",
"`.OXOX'. .t.eX-X-X7 n ].'./. .] 4 4             I I ;.  :XdXdXdXdXdXdXaXdXdXdXdXaX  <.<.].&X4X8XS.7.l.x.-.} a ! ! &Xl. .V...H k ",
" X'.1 ' b.v.I W W [ r.#.V._.            }._.!.a.#.x./.  :X:X:XdXdXdXdXdXdXdXdXdXdX  a.p.,.,XP 2 e w.*.>.M i.l.R ! E.&X(.[.=.5 B ",
"5 & X 7.d.s.Z 4 Y [ t.x.x.}.            _.].!.a.#.@.).  :X:X:XdXdXdXdXdXdXdXdXdXdX  a.p.H.).2 P r ] >.*.b k.l.R R E.H.%.] [ o.{ ",
"% ,  .s < ] ] R 7.=.. . . .     O.l.#Xb.C.C.:.w.H.$X&.}       :XdXdXdXdXdXdXdXdX:X  ] ]  .$ % = s.V.] } l g.).{._.j...z 6 6 v 8.",
"r :.&.; ;  .9.!.!.. . . . 7.- O.~.~.w.c.v.v.q.R y.y.G.A.8.      :XdXdXdX_ _ _ :X  - b V i b.{ 8.x 1.7.7.v.V.8.[ [ a.3 D.6X%XD.p ",
", | # % ,X:.n.. . . -.] ] % > |.XX X+.s 7.7.m t.=.d.M.:.a.    O   :X:XdX:X:X:X  E c.#X#Xe %X=X=XU a b.K.$XJ.n m V 7.F.yXqXyX#XY ",
", % o 2 x.(.  . . $XC...O.6 i.>.& * a 1.x z E t.              O O . .         ] E s 6X5XeX#XD.S.<Xk.2 c a J.a.M M 7.3X3X XD.# % ",
"= 9 y u D.9.. . . $XC.-.%.5 i.>.* % s 7.k x Z t.              O O . .         7.A u 6X8X6XQ.D.D.7Xk.P P s J.u.c n q.B.Y.B.s p $ ",
"e r $ 2 Z e . ].`.<X!.o.o.3 S.6 C C R.m.m v Y       O O O O O . . . . . O . . . . E Z V yXuXk.b.V.3X@X@XC f.y C V T 6.2.K f.U.f ",
"r ] ;. .n h . ,X(.H._.O.@.d >XH.7.6 n P I M     O O O O O O O O . . . . O . . O O . tXqX%X).}.9Xv.d.iXiX#Xo e.&X&X* g ! l Y.Z.o.",
"A ..- y s e } 7.9.] ..>X%XO.:.>Xu u e R         O O O   O O O O O O O . O . . O . O . . 9XG.M.M.W.D qXqXqX4 tXY W I ^ W F T.@.2 ",
"m - i l ^ u.] [ [ +.k ,.,.7 a O.K.K.*X  O O O O O O       O O O O O O . O . . O . O . . i d.Z.c.I.G C.C.9X>XP.a k C Y.U.U.^ o q ",
"z # X 0 H A.{ ).<X$X] (.>.:.z # K.K.  O O O O O     .         . . . . . O . . . . O . . s.|.OXOX X:.9.9.G.B.N.U M J 5.L F F p * ",
"e b R.,XA.q.} <X).!.} >.(.:.z # K.K.  O O O O O     .         . . . . . O . . . . O . . +.qXOXOX XH.q.q.G.A.J.F U J K S g L J.I ",
"G B.J.t.Z J.; qXeX!.;.).).!.&X#Xk.o.  O O O O O     . ) ^.rXrXrX^.^.^.^.O . . ) . O . . 1X_.>X>X>.<.p.p.1.h.f.H H i.L f.S I.F g.",
"l z C S i l ; _.].o.&XXXXX+X6Xe.    O O             . ) rX^.^.^.rXrXrXrXO . . ) . O . . . 5.t t p 5XR.R.3.I.g Z.Z.0XT.h.L S $ U ",
"j m.] s 5.~ D.9.9.;.XXOXOX5XY ..    O O O O     %.%.  ) ^.rXrXrX^.^.^.^.O . . ) ) . . . . g w w u.9Xp.p.5.L j.L.L.i.J.j.L g Y.J.",
"2.2.e 0 h i.G.q.9.:._.|.'.8.%.  O O O O O O   } | | . ) ^.^.^.rXrXrXrXrXO . . ) ) . O O . G t e j.p.o o g F I.F F P.j.U.L D J 5.",
"4.4.A D f.*Xs.1.1.%.H.5 5 = s.  O O O O O O   , d.M.. ) ^.^.^.^.^.^.^.^.O O O . ) . O O . e 0 0 V y 0 0 q l L U.j.P.b S J S x A ",
"G B.B.D S.*Xs.1.1.| H.6 5 = d.  O O O O O O   , %.M.. ) ^.^.^.^.^.^.^.^.O O O . ) . O O . e 0 0 Z y 0 0 0 D K j.j.W.a l.a.F j.B.",
"j G H F f.A P.D.C.1.T [ [ }.  O O O     O O   u.N B . . ) ^.^.rXrX^.^.^.^.O O . ) . O O . Y u.u.h w U P s 5.L I.I.S R I t.A n d ",
"G 1.s s n.D z q.q.D d.1X1X,.  O     dXdX    c.m.9...} . . . . . ^.^.^.^.^.O O . . . O O O . . . h d ^ ^ K.y ~ U.U.~ &X0.V.V.p * ",
"= p.a X R L.! d.d.g.a.v m s u.  dXdXdX      O.(.[.1X{.. . . . . . . . . . . . . . . O O . . dXdX. . 8.q.T.T.y M d 3XyXx.,.O.8.+.",
"e ] R w.y u.h.f.f.G.L.D.D.!   dXdXdXdXdX    -.<.:.>.:.. ) ^.^.^.^.^.^.^.^.^.^.^.. . O O . dXdXdXdXdX. . b Y.H ~ E L.yX%Xi. .@./.",
"Z 8.V.! x.F.z r r % ..G.G.<.  dXdXdXdXdXdXdX  }.(.(.<.. ^.rXrXrX^.^.^.^.^.^.^.^.^.^.. . . dXdXdXdXdX. . K.Y h.F.F.j.,.;.n.<X!./.",
"B 1.5 y.$X!.N r r # a.=.A.>X  dXdXdXdXdXdXdX  }.[._.<.. ^.rXrXrX^.^.^.^.^.^.^.^.^.^.. . . dXdXdXdXdX. . S.E u.F.H.j.S.K.&X(.).Q.",
"6 % e.yXtX<Xz  ...>XR.:.:.H.  dXdXdXdXdXdXdX  < T Q < . ) ^.^.^.rXrXrX^.^.. . ^.^.^.. . . dXdXdXdX. uXuXuXv.a.F.F.7X!.K.5Xt.7 Q.",
"| =.&.4 c.5XY 8.} 7.v % % 8.  dXdXdXdXdX.   0.q.a s . ( fX) ) ) ) ^.^.^.^.. . ^.^.^.^.^.. . . . . Y 1X<.wXk.e.uXuXiXqXc.H.6 *.`.",
"*.< :.a c S.R 1.1.c / #X%X!.@.          f.f.l z.Z I . . . fXfXfX) ) ) . . ^.^.. . ^.^.^.. R.i.i.qX].=.=.A.H.5X0X0XR.3X,X0.D.;.-.",
"o./.!.l.P W C.< 2 y ! 7X7XiX].x.%X%XF.M.] w.U x.L.H.. fXfX. . . ( . . | . . . ) ) ) ) ) ^.. *X*X'. X1X_.q.H.1XM.M.B y.d.i.c.+.5 ",
"7 I R R.7.s c < < 8.F F.F.#XF.5X6X0X5XC.C.:.H.n.. . ^.^.^.fXfX( ( . . 9.=.. . ) ) ) ) ) ^.^.. . - Y m.%.N.p.M.d d I J.Z W d.H.l.",
"v X u q.p.M n 3 3 9.F F.F.$XF.5X6X6X2XC.C.D.P.d.. . ^.^.^.fXfX( ( . . | =.. . ) ) ) ) ) ^.^.. . > < %.a.p.j.A.d f U F ~ s.Z A.C.",
"H f M.f.J k Y 6 6 9.p.C V e R %X!.!.x.%X_.2Xu.J . . ^.^.^.) ) ) . 1.1.C 5 n.c.. ) ) ) ) ) ^.. . Z Z g.y.a.A Q % a p.I R f 0 s a.",
"o v 1.- n I #.3 3 V u.5 6 H.'. X/._.#.|.oXtX|.. ^.^.^.^.) ) ) ) . ;.;.< V (.).. ) ) ) ) ) ^.. . k.Z k s K.i.n k.n.M x p u ^ y k.",
"# H l u >X0Xd.q.q.A.A.,.!. X0X5X,X).|.%X9X{.. ^.^.^.^.^.) ) ) . w.#X;.6X8X'.'.%X. ) ) ) ) ) ^.^.. 8Xb.b.L g.d i.k.=X* u ^ N.g.U ",
"p.S S u.>XV.j z.v...8.>X>X+.B z Z.Z.tX2Xk z . ^.^.^.^.) ) ) ) . Q.OXOX+XyX4X4Xd.. ) ) ) ) ) ^.^.. y.c.c.a.k.n.~ Q >XW d E F I.h ",
"K G S Y h K r A.v.a.8.>X(.o.B v Z.Z.tX2Xk l . ^.^.^.^.) ) ) ) . S.OX+XiXXX`.<Xz.. ) ) ) ) ) ^.^.. ! c.c.a.k.k.Q Q 1XC.c.V.b g ;.",
"4.4.g y 6.6.} A.A.< b 0.0.Z B e Z b R.E.. . ^.^.^.^.) ) ) . . w.6XoXtX).1 S.;.$X. ) ) ) ) ^.^.^.. l.#XQ.A.b.0X_.9Xj.p.#X5Xg.Z.4X",
"4.S 9 S K X k V V y.v.M.M.p.b D i r ~ . ^.^.^.^.) ) ) ) . =X=Xd.:.] ] $ i d.M.H.. ) ) ) ) ) ^.^.. ,.!.(.P.L.d.D.D.A.7.A.0XH._.].",
"4.u.b.u.K K P * a F.Z.d.d.i H 5.J G g . ^.^.^.^.) ) ) ) . Z.C.Z D.2 > t.,.m M 7.. ) ) ) ) ) ^.^.. h t.e.-...A M F V.D.a.t.A.:.;.",
"H.%XI W F K <X/ / y l d.d.0.z D f.f.%X2X. . ^.) ) ) ) . M.p.9.(.8.l k :.>.! ! Y l.. . . . . . . . ;.#X$XD.D.O.y.y.,.%X-.R f.7.W ",
"0.u ~.qXqX2XG.7X7Xn.J m m # Q H J.A.V.. . . . . . . . p.A B.B.z e 1.7.%.i c U 2XH.).. . . . . . c 6X<X2X&Xe.R *X=X>X>X_.H.8.b Q ",
":.:.{.9XwX0X:.7X7Xb.J z m # E H Z.J.-.. . . . . . . . p.C B.B.k e 1.A %.i P M 2XH.,X. . . . . . c '.<X2X%Xt.W =X%X%Xc.e.Z.Z.d.Z ",
"1X<.(.!.! $ 9.H.F.iXn.# # b.=Xd n d u . O O O . . . U.D 3.3.A z.n.1.1.z u 4 3 Z.(.,.. . sXsX. . ,X].>X>X_.i.U 2X4X%X9.d.3X2X_.%X",
"h.p.:.a.r e p.M M tX<Xl.k.wXp y.^ ^ . . . . . . . . 6.J D q.u.0.H a s u s i s d.D.. sXsX. . . . . . s.9.@.*XF.,.H.%XA.w.! b 5 l.",
"j 2.6.j 0.c.N.z l 3X3X>X3XH.k f.. . sXO O O sX. H H G S F H H K J u s s n R R 9.u . sXsXsXsXsXsXsXsX. . . Z.x.x v r.N.x { y & ; ",
"G j k <. X0X0Xi.u.a.G.B.B.j.H . O O O O sXsXsX. q.p.*X8XyX6X8Xf.t Y Y V.,.+.+.Y F . . . . sXsXsXsXdXdXdXdX. (.Y C i h.V l.+ -.(.",
"r N B.E...# =.G.G.3.f.N.I.N . O dXdXdXdXdXdX. . K.K.pXuX6Xy $ 0 Z :.:.W f u u p p h >X>X- . . . . . . . . . 6XyXyX8XY ! H.m =.>.",
"r 1.1.` Z 4X:.G.G.q.h.I.U.N . O dXdXdXdXdXdX. . T.=XpXtX6Xy u e Z :.:.Q d u u u p h >X>X- . . . . . . . . . |.rXyX8Xp.j.j.D u * ",
"j Y o.* l.).I 0X0XL.5.5.5.m . . . . . . . . . ~ W.W.E.9XI 9 9 0 < S S L s g g ~ n.h K.K.H f.;.#.d ,X%X%X4XuXOXQ.Q.2 P.Q D h.n $ "
};
