/* XPM */
static char *grass_64x64[] = {
/* columns rows colors chars-per-pixel */
"64 64 256 2 ",
"   c #172D3C",
".  c #18373B",
"X  c #243D3B",
"o  c #1A473A",
"O  c #27483C",
"+  c #2A583C",
"@  c #325B3D",
"#  c #365939",
"$  c #314E34",
"%  c #2A643C",
"&  c #35633D",
"*  c #3C653D",
"=  c #3C6C3C",
"-  c #386A38",
";  c #3D723C",
":  c #39783D",
">  c #2E7239",
",  c #436B3C",
"<  c #46683C",
"1  c #44733C",
"2  c #4A733D",
"3  c #457B3C",
"4  c #4B7C3C",
"5  c #497734",
"6  c #537A3B",
"7  c #466E2D",
"8  c #657C33",
"9  c #1A3746",
"0  c #122E43",
"q  c #223B42",
"w  c #1C4747",
"e  c #1A5649",
"r  c #1C5754",
"t  c #244543",
"y  c #264A47",
"u  c #2C5343",
"i  c #2D5B43",
"p  c #2B544B",
"a  c #2C5C4B",
"s  c #245748",
"d  c #335C43",
"f  c #325D4A",
"g  c #375945",
"h  c #2A5C53",
"j  c #255855",
"k  c #31544E",
"l  c #1D644C",
"z  c #2C644B",
"x  c #2A6848",
"c  c #336444",
"v  c #3B6444",
"b  c #336B44",
"n  c #3C6D44",
"m  c #33644B",
"M  c #336B4B",
"N  c #3B6B4B",
"B  c #3B634B",
"V  c #3C7344",
"C  c #3C7A43",
"Z  c #3C734A",
"A  c #3C7D4B",
"S  c #357548",
"D  c #2B6757",
"F  c #326453",
"G  c #336B53",
"H  c #376B56",
"J  c #287556",
"K  c #3B7353",
"L  c #377958",
"P  c #2E774A",
"I  c #286765",
"U  c #2A7464",
"Y  c #377B63",
"T  c #366F62",
"R  c #315860",
"E  c #426B44",
"W  c #426B4B",
"Q  c #466746",
"!  c #437343",
"~  c #447C44",
"^  c #4B7C44",
"/  c #43734B",
"(  c #437B4B",
")  c #4B7C4B",
"_  c #4B7447",
"`  c #537D44",
"'  c #54794A",
"]  c #437954",
"[  c #547C52",
"{  c #466D4F",
"}  c #627D4A",
"|  c #436F57",
" . c #38873E",
".. c #4B843D",
"X. c #4D8B3C",
"o. c #478439",
"O. c #53843C",
"+. c #548A3C",
"@. c #5A8938",
"#. c #4B963A",
"$. c #54933D",
"%. c #5C943B",
"&. c #579939",
"*. c #51942D",
"=. c #658D3B",
"-. c #64943C",
";. c #659C3C",
":. c #6B9C3B",
">. c #679636",
",. c #749B3B",
"<. c #689A2C",
"1. c #59A63A",
"2. c #5FA02F",
"3. c #7BB82D",
"4. c #6BA43C",
"5. c #68A739",
"6. c #73AB3C",
"7. c #77A83A",
"8. c #6AB539",
"9. c #7AB33B",
"0. c #78B737",
"q. c #6CA42C",
"w. c #79C33A",
"e. c #71C12C",
"r. c #3A8649",
"t. c #3A8659",
"y. c #318C56",
"u. c #388566",
"i. c #33926D",
"p. c #3CA96B",
"a. c #1B8458",
"s. c #448344",
"d. c #4C8444",
"f. c #4D8B43",
"g. c #44834C",
"h. c #4D844C",
"j. c #4B8B4C",
"k. c #468B47",
"l. c #538343",
"z. c #5C8443",
"x. c #538B44",
"c. c #5A8C44",
"v. c #53844B",
"b. c #538B4B",
"n. c #5B8B4B",
"m. c #5B854A",
"M. c #4B9244",
"N. c #4B974A",
"B. c #549344",
"V. c #5B9443",
"C. c #54924C",
"Z. c #549C4C",
"A. c #5B9B4C",
"S. c #599846",
"D. c #478755",
"F. c #568A54",
"G. c #489658",
"H. c #559855",
"J. c #648947",
"K. c #629442",
"L. c #649C43",
"P. c #6C9C43",
"I. c #639C4A",
"U. c #6B9C4B",
"Y. c #689348",
"T. c #759948",
"R. c #668954",
"E. c #669955",
"W. c #749352",
"Q. c #59A548",
"!. c #58A758",
"~. c #59B659",
"^. c #50AA54",
"/. c #64A244",
"(. c #6BA343",
"). c #6CAB43",
"_. c #6BA44B",
"`. c #6CAC4B",
"'. c #64A948",
"]. c #73A444",
"[. c #74AB44",
"{. c #7BAC4C",
"}. c #77A848",
"|. c #69B648",
" X c #7BB343",
".X c #76B747",
"XX c #67A855",
"oX c #78A755",
"OX c #69B655",
"+X c #78B954",
"@X c #479866",
"#X c #499366",
"$X c #53AD6C",
"%X c #6FB364",
"&X c #79C546",
"*X c #74CB50",
"=X c #66C763",
"-X c #83AB35",
";X c #86B83A",
":X c #93BB39",
">X c #89C738",
",X c #95C838",
"<X c #99D739",
"1X c #90CB2F",
"2X c #A1CA37",
"3X c #A6D839",
"4X c #ADD833",
"5X c #98E43A",
"6X c #A8E53A",
"7X c #B5E939",
"8X c #AAF338",
"9X c #B8F134",
"0X c #D6FB39",
"qX c #C4F23A",
"wX c #E3FF3E",
"eX c #839B4D",
"rX c #85AA47",
"tX c #83B343",
"yX c #83BB43",
"uX c #8BBB44",
"iX c #87B748",
"pX c #94BA45",
"aX c #87BA54",
"sX c #94B856",
"dX c #88AB54",
"fX c #A5BE49",
"gX c #8CA963",
"hX c #88C546",
"jX c #97C746",
"kX c #8BD747",
"lX c #98D646",
"zX c #88C953",
"xX c #96D755",
"cX c #97CA55",
"vX c #A4CA48",
"bX c #A7D946",
"nX c #B5D947",
"mX c #A5C956",
"MX c #B5D353",
"NX c #97E447",
"BX c #9FEA5C",
"VX c #A8E646",
"CX c #B8E747",
"ZX c #B7F546",
"AX c #B2ED54",
"SX c #84CB66",
"DX c #C1D755",
"FX c #C4EB48",
"GX c #C8F846",
"HX c #D8FC49",
"JX c #D9F454",
"KX c #CBEE53",
"LX c #E9FE51",
"PX c #CAEB64",
"IX c #4FBD84",
"UX c #53C783",
/* pixels */
"O *.# . # :.$ &. X/.@ 3.<X&.S 0.,X&.3 - % = 1X3.>.>X[.;.1Xn u + x.*Xy. .y &.d.5 :X0.q., 4 o.@ v C > < eX<.@.&.hX0.&.o.o 1 g $ -X",
". : 6 - - 5 4 7.%.X.1 @.*.#.A Q.0.n % 6 K.%.V.J.+.(.b : u b o.n u D.P s a 3 ..6 9.(.L.b.).$ q n d.# $ eXwX4X@.5. X+.1 @ ` _.+ # ",
"o.*.@.5 -X2X-X, 1 7 < 1 ! b.K d.#.u n ).l.t u V.~ n & c _ V.; l.+.O a y.l.P.V.4 2 L.;.+.@ ` ^ x.1 V % _ ;X9.3X4X<X%.-.6.R.Q.n ' ",
"1.5 # 6 4XqX>.@.;X0.4 = i { v.f & d m ! ^ z ! A.v V $.1. XY.E V.*XOXA D.>X[.6 @.2X;X@., V 4 @.@., 3 _ x.o u :.;X@.7.jX4.M t.z n.",
"o.*., >.5Xq.= 4 1 5.).= & + A.{ y ' } 9 W 4 v b.n S Q.- + 5 : u M $Xt.f.5.n c ,.,.P.jX-X6 K.P.-X;X8 V g.@.pX4X2X,.,XqX6X).V b O.",
">X> @.1X1.- 1 >.0.%.+ * ! f.! ! y + ,Xn.+ f Z k.M G M a * +.n @X$Xi.J S a V E 2 -.4.2 3 4 _.tX;XY.z.^ n.3X9X7X1X<X,X;XVXNX1 ! x.",
"q.% 3.q.& %.3.:.2 * - = 1 , # @.tX[.V.Z.v 2 *.g ) b.s.x ^ eXM UXIX$XG a h ) 1 * 4 3 n ~ :.-.< @ - 6 - I.&XE = # 6XZXE ; *XM.g m ",
"# 2.q.- O L.d.L.4.).O.O.@.O.' Q 6 >X9.b.U.:X^ # x...X.S lXP.t.D.O   S g.W N d 2 5.&.$.X.c._ & %.4X1X@.V - C $ t ;.kXd.9 A P sXgX",
": + O O O 4 + @.$.|.< 6 o.X.U.rXs O & U.KX0X,., %.+.~ :.3XC P d - u @ O < `.f :.T.3 ~ ~ s.! 1 q.=.2 ..X.5.~ d s O H.g.h k w rXLX",
"+  .2.= J.P.+ 6. X}.7.>X1X>X$.jXO.2 O.o :.qX4X` ;.O.>.1X8.#.-.< y Y.^ _ y Z.j.V. X1.v.:.q.6 @.7.=.:.&._.s.O t.L s z ( k q 0 ` 8X",
"x *.6 $ 1 >X2 %.;X;X- $ @ ).).;.<.8 fXMXT.-X1X:.+.jX;X3.*.:.;.$.+.(.rXl.V.sXg.C 9.I.V.+.5 5.>.2X7X2X@.V V.! d z b.hXyXE.l.j . 8.",
" .> + 6 rX,X9.@.>.O., - & ! 5.<.6 # $ vXLX2Xq.}.-X<XjXpXdX:X<.= ..*...^ yX-XT.l.+.uX,.! ! l.c.1X1X6 v N Z u g v .X+.. n H.j.w A ",
"> o O ,.jX{.7XJ.5 =.,.6 # u pX4X>.%.* < 2X<XP.iXnXx.n.}.,X5...8.:.= l.CXKX3X9.O.pX3XpXT.- # ` 0.6 ` %.B g @.2 + O O O - G.#XG.D ",
"*.,.:X2X]./ 7.4.-X:XnXDXfX4 c 6X1X&.O.2 dXFX,X[.jXE 7.1X1X-.}.-X@.<. Xc.K.7XP.w.2XpXvX7.s.P.4.x.i ` jX{ W %.2 n c R.B d.e j u.r ",
"2X0X0X4X%.n.l.V.P.;X6 Z _ @.@.P.3X$.V.x.E ,.6X;XB.P.,X<.).lX7X0X1X; 0.! g U.E.Z.9.,XQ w d.3.n n.K.) *XE.d +.6.O.N _.L.%./.&.P z ",
"8X4X7 *.,.I.z.; :   O s.3 5.>.%.3.%...-.rXY.).6.l.tXq.+.^ B.6.7 6 1X1XK.) / H.s.&.O & Z.(.+.a v.<X<XN.D.].4X3XtX' iXjX>X>X).3 V ",
"5 $   r.L.$.E * ' J.Q l.;X3.[.Z.g.& >.:Xz.U./.k._ v.|._.l.0.<X1X%.=.+.,X4.u # C u W.d.c ~ g./.(.h.@.&./ z.%.;XlXb.(..X1...O.=.+.",
"% - %.a V X.; T.}.-.vXY.u O.;.o.% - CX7X-.s g.M +.L.Q.8.&.<X9X8X5.0 t +.8.E W.{.w tXdX{ + U.tX`.m n s.3 #...+ 5.I.! &.x d.4 b d.",
"e e.1.* * +.1 >.>XO.v tXT.tX).5.4 z.0.# s s.c V x.y y ! : V 4 %.1.& B.j.s.Z s MXnXtX}.jXJ., a XXC.m ( B.5.1.~ C.A.b.1 ].CXuX[.p ",
"> *.. @ jX0.>X7.3.4X@ b bXjX;X@.! }.4 ~ w.Q.M ! d m u q ' O 9   O V ~ 3 E ! ! ! FXHXY.).mXeXC D.y V ~ d.4.:.n ).j.V {.GXCXFXrX! ",
" .O . < (.0.0.,.bX9X3XjX,X.X<X:.v hX.Xd.n Q n u n $.` / /. Xu a O c S t l.VX0XCXpX>X6XI.Z.LXrX. =.pX# ! I.v.,.[.N.M SXkX9XP.o @ ",
"+ 9 t y ).$.O.9X[.7.3.+.k.f.&.yX:.[.uXy w g.>Xd / A W I.~ lX+.kX<Xs.L G *X[.6.,XVX|.^.~.G CXCX_ GX! ! /., _.CXVXQ.L =X~.~.p + O ",
"e w O - / w A.#.% = $ o.@.=.x 7.6 a 1.oXiXP.5.4 l.; Y.).M |.8.8.g.y.z ( m D D J i A.P.!.J 6.NX&X+X% V &Xg.K Y.lX*XD u.u.U D.#Xd ",
"l o.7.%.v h n 3 O @ ; O.jX;XX.;X8.b o oXGXjX7.].;X=.mX_./.0.Q.|.~.$XJ X U $Xt.s -.7XHX7X|.k.|.|.XXB L  .b.Q.O E +XD.j ) f $X`.=.",
"C X.& t y t _ [.y ! @.* CX;X6.,X;X:XrXY.CXlX%.>X<X,X3XbX3X8.^.Q.^.r.w j u.y . ~ 5XkX>X0.w.N.G.G.D.Y v.iXU.] n.D B H.[ ) | %X4.< ",
"b c y z F.b.v 4.p oX5 * 3X@.pXqXwXnXJ.E tXVXf.0.>Xe.e.e.5./.&.M.k.k.W.W.A U D 3 ] Y r p lX&Xt.t.a _.VXS.H D.{..Xp h $X#XF.] 9 q ",
"P o   . L '.h.R.c..X6 ].M.7.7X0XbXd.%.f.j.5.#.M.8.1.*.0.7X7X2X-.).bXE.2 ) ] H M j j w b.NXZ.i.T H.OXn.v f W.nXBXC.a #XY F H $ g ",
"w V hXhX'.j.O ' A.M.d |.k.0.bX7X4 #.X.3 s.s.: C #.#.1X6X7X4./ V.0.& @.CXKXCXbXI.j I w j.Q.0 h F @XG dX$XD.f < &X!.j I D D ] !.N ",
"J ~.XX+./ !.H E s.b.T.V.r.#..X3 % S.&.1.>X0.+.+ > Q.w.5.% X.V cX>X;XlX6X7XGXlXiX| w 9 n t 9 q h T H.%XG.!.XXy p +XH.T D.R #XF H.",
"x x C D y m E.!.d.K.|.+X[.r.s.@.6XyXX.o.O.hXbXU.d.P : u z j.B.&X6X>X0.1X7.E y J z ! b.k q Q s #Xu.@XJ z F.F t.m W +X+X@XY D O E ",
"l 1.d.a t.] !.!.XX`.r.x j.M S.kX7.V V c [.[.` L.&.M.#.s.zXQ.G.|.&X#.|..XA e D D D.^.j R B [ gXw ] #XK mXXXG.H.OXj.F.XX!.L h $X_.",
"a.y.t 9 k R.u.u.J K u ^ I.b.N.b u F.g.(.n.B.o.:.>XkX5X&XOXAX.XG.N.V D.y.A I.oXY.D.F.U.H E.k.%XXXt F xXBXZ . 9 9 Y.`.H.#XY D Y t.",
"a.a.A K D.dXD L a a t.t.j.|.|.[.[ {.M..XD.8.f.4.w.w.).&X*X=X*XG.M t.t.L.ZXZXtXU.C.H.P.hXoXXXM $XK { +X1.O } [ k pXlX! D L F x A ",
"y.~.~.D }.aXD F c b S P e o S.).hX.XQ.N.N.k.!.zX6X>Xw.1.r.y.$X~.C.A |.*X&Xx  XZXAXVXhXG.xXDX}./ j.+XZ.^ g _ sX[ .Xv i V.C.G Z.~.",
"J P L F D.L q a @ 9 a x V.hX&X8.|.).Q.y.r.'.Q.^  .~ ; x.J j U G.|.N.Q.Z.g.sXGXlXkXU.C.x B.JXKXI.V.{.sXJXJXT.W.J.G d 4 E c.Z B k ",
"J r.u y oXM k l.U.L.u ! X.s.n + O._.)..Xr.*XQ.h.j.i Q ! Z.0.n.A Z.j.+XW E lX+XxXNX.Xx._ ^ >XZXI.m.JXLXDX, c v T.E.W.pXf./.(.u & ",
"+ N.i   ^ oX] yX`.hX) ( r.d J.rXpX].`.lX|.Q.D.z P./ m.iX/.: (.[.r.'.).p m X.m _.&Xw.n.CX3X5.|. XbXVX&Xb o M 4.6 sXJXKXY.9.;.^ >.",
"w o.) O.O j.] >X`._.V.).; t _ mXHX<XP.iXrXQ.f.Q Y.|.s j.-.vXuX: N.#././ _.`.M  XhX.XaX3X7XkXk..XzXQ.b c.T.}.,X=.t -XGXtXV.-.:.1X",
"V d._.6 ].{.n %.iX/.f.c 1 f.H {.rX{.bXCXlX).)..XXXQ.P d.mXLX:X% y.#.4.@ d.lXn.+.hX1X-.n ; 1.Z.Z.'.d W hX%.Q R.DXDXJ.0.7.Y.jX;X>X",
"S r.3 v.rX;X%.d.Y.jX,.! 4 X.C.C w ^ ;X;X].tXlXC.L G.x }.GX0XrXb r.C 3 E.pXjXjXL.6.4.v.N S ) C.A ~ @ N.H.m.d v g DXHXrX{.sX,X,X-X",
"4 + @.FXFXjX[.J.vXmXpX,., N x.4 .XbX6X1X,.7XGXCXB.r.K `.5X5XK.pX7.; = ,XlX{.CXK.O.U.}.J.n m oXn.B Y.B y _ x.%.< eX4X-XdXbXx.6 -X",
"$.1.q.4 T.bXJ.lXpXjXpXS.g.'.'.0.9XVXbX,X9X;XNX8XkXN b.N.1.*.5.c.7.nXMX4XiXh.{.}.pXjXDXMXMXT.T F.a n.sXB B s.B.3 v.DX7XU.+X2 -X2X",
"3.5 5.d v }.Z.$.>X6.O s I.&.h.hX>.n x `.ZXlXx Z.*XD.{ L r.> x 7.0XLXFX2XA.W.v.I.[.hX} ( ' Y.C.J.n.] hX_.N iXbXrXn.W cXhXj.].6.5.",
">.>Xw.J.Q { A.X.X.9 C x.'.; M v.Z S w n zXkXM w #XD.mXh.x C ` 6XqX2X1 7.;X{.E.^ o.O d d.K.9._.].bX5XG.H.jX3X9.-.T.dXb.Z.m.U.>.5 ",
"6 < d.&Xk.p v + h rXz x V h.I.Q.N.Z G y K ~.t.T j j MXmXz zXC.).O.O w Q..X).) / J.R.^ n.9.0.aXOXA.[.Q.] l.s m.bX;.^ E.Z / H..X-.",
"b 0 y M.N.v eX@.t cXW.v d }._.Z.s t.t.J j k.{ k y y {.xXI.).! 6.1 +.9.V s./.g.oX{.}.mXoXf c.(.B.~ N ].F g.( bXbX` m H ( V.! '.).",
"L d Z.g.L x F PXpX]./.jX} t h A.D.z M D.hXkX+XR.m.F H *XB.B.&Xd.z 8.3.' n ;.m.P.>XO.W jX}.tX[.[.L.d. XE S.M.[.X g V.E ) d 9 f B.",
". b r.b m _ * ' HXFX' |.mXW.L M o ( K _.(.& y XXH.A.p M.A ~.x w A 1.s v lX.XjXtX;X4Xv v nXjXuX=._ sXuXk.N Q # c.<X-.d u p ) y J.",
"o A a p hX8XHXCXiXxXlXC.|.LXY.w T.dXd B y f k H.@X$X@XG g.A L.P.r.b y ! _.>X-X}.bX7X3XjX<XhXlXJ.Q lXiXy Q J.W tX, g # k ) XXD.W ",
"N.D I j.hXT.7.,XkXN.!.S.W GXjXJ.KXp b.v.E.}.W.D.i.Y @XL J D.h.K a y u s Q.).` 8X+X0.>X/.C.+.;.aX{.[.iXB _ .X4 / E ]._ k W F #Xf ",
"J J G ! j I D j O V.F.^.z kXhXzX|.z D.|.j.zXU.dX] t.U l G ] I L y a * ^ k.y C.Q.C E ; +.+.}.Q }./.b C.cXnXiXE XXiX_. XY.(.W j 7.",
"p.i.j q i.i.D @ >XGXGXVXc.Z.|.~.H.L t.N.XXQ.}.OX] j.%XMXFXnXD.j ! 4.[.-.! B B C.# + V $.;XMX' ;X&XV y rXGX;X{.aX XQ.j.iXbXv._.3X",
"y.l 0 j U   q 8.NXkX>X5.|.D.D.@XP t.F.sXE.F.V.XXH oXPXHX7Xt t K 8.) m y y u k hXc H /., pX4XrXnX7XJXMXT.nX3XL.hX_.v.f.4.bX X<XlX",
"a.D.T.b.I I m B.H I 9 E VX|.t.u.D hXVXh.H E.zXXX] =X*XxXE 0 9 r.z U a j ] E.F oXK D.7.g hXtXvXHX0X-X= - T.CXE./.k.( .XA.c.`.8.6.",
"&XiX_ 2 { T z h j j w +XkXD.i.Y OX|.F.F W mXKXVX] IX$X@Xd _.hXXXF j w 9 R G.H.XXF..XJ.]./.`.lX7X' 3 '..X).L.F.r.(.jX.X/.^ g.d.^ ",
"b.t :XCXCXbX+Xf j R y |.b   I H t.F SX!.L F {.xXH.U u.Y %XBXAX&XF y H.lX+XG.u N U.M.] A 1.f..Xc.J.jXV.f.'.D.K V.(.m.jX<X.Xd.n ( ",
"0.e.5XlXZXVX>XC.9 0 y ] 0 q q k I XXOXu.!.#Xw D.~.D ] T $Xv.u D L H.*XA.( !.F.u F.K {.).V.r.h.iXZXm.z Z `.A.z .._ yXU.' _.I.L.Z ",
"kXw.w.>X6 u w I O D.] . X y j Y Y G.j J F.B ] y D.@X{ Y L 9 F D Y u.M H h D G.XXj.x._.`..XF.] zX( ) g.v.g./ ~ d.l.m.f.I.xXlX<XhX",
"p.#.|.Z.w w r j @Xu.9 k k R.' y D.F.F xX_.y.H.!.F @XY F h IXIXi.j K *XN #X] G.~.H.XXk.N i M ( ( p A.j.a ~ ~ F.XXx.( Q.z.^ = 1 K.",
"x J u.l d.E.U.d.] R.v.T H.v.SX] y Z xXNXK 9 9 w W.#XU j i.D { T.' t.j q 9 [ #Xi.y.K g E L.L._ , /.b.D.p ) 4.I.C.A.'.^.B 6 t $ v ",
"J l s w.9XbX[.b.v.v.].+XH.~ Y $XF v.=XQ.q } E p lX_.D I j O 9 E.JXMX` M j sXY L z a H t.A b.[.L.! M.A R.( F _ A.G.Q.D.V K.q 4.>X",
"e P ~.*X#.+ jXGXAXVXE.A.AXfX_ N F._.r.Q k B sX_ P.i j M d g.F 0 -.GXAXOXm NXY F c u m x M t O B.d...> _.}.F.{.V.b.j.~ ` .XS 4.0.",
"e r. . .V vXZX<XtXg.h.i hXHXmXb.z.iXfXPXJXY.eXR.n u :.9.hX0.'.K.^ 0.*XOXV !.F y @ u 9 x z i 4.0.3.7.V.c. XI.pXjX6.S.Z.G.H.L u # ",
"l ! =.# -.jXhX>X>X:.E g ;.,XCXv eXJXLXPX_ d g rXb. XbX>X,XX.: ` uXkX|.^.~ ~ j g 6 ].).w # 6.4.%.>.5..X>X5.4.;X3XyXP.+X( D D.m O "
};
