/* XPM */
static char *naruto2[] = {
/* columns rows colors chars-per-pixel */
"64 64 232 2 ",
"   c #0A0A0A",
".  c #121111",
"X  c #172D3C",
"o  c #18383C",
"O  c #33312A",
"+  c #243D3B",
"@  c #783111",
"#  c #1A473A",
"$  c #27493C",
"%  c #2A573C",
"&  c #325031",
"*  c #355A3A",
"=  c #2B643B",
"-  c #37663A",
";  c #3C643D",
":  c #3C6C3C",
">  c #2E7239",
",  c #3B753C",
"<  c #466E2D",
"1  c #446A3C",
"2  c #44733C",
"3  c #4A733D",
"4  c #477938",
"5  c #4B7C3C",
"6  c #537A3B",
"7  c #657C33",
"8  c #122F44",
"9  c #1A3846",
"0  c #213B42",
"q  c #1C4747",
"w  c #1B5648",
"e  c #1C5755",
"r  c #234543",
"t  c #264A47",
"y  c #2C5444",
"u  c #2C5B43",
"i  c #245648",
"p  c #2C544B",
"a  c #2C5C4B",
"s  c #335B43",
"d  c #365A47",
"f  c #30544F",
"g  c #275954",
"h  c #1D644C",
"j  c #2A6747",
"k  c #2C634B",
"l  c #336444",
"z  c #3B6444",
"x  c #336B44",
"c  c #3C6D44",
"v  c #33634C",
"b  c #3B634C",
"n  c #336B4B",
"m  c #3B6B4B",
"M  c #2E774A",
"N  c #3C7344",
"B  c #3D7A43",
"V  c #357548",
"C  c #3C724A",
"Z  c #3C7D4B",
"A  c #2D6354",
"S  c #2A6958",
"D  c #326453",
"F  c #336B52",
"G  c #376B56",
"H  c #277556",
"J  c #387757",
"K  c #305860",
"L  c #286765",
"P  c #2F7264",
"I  c #377A63",
"U  c #426B44",
"Y  c #446847",
"T  c #437343",
"R  c #4B7447",
"E  c #447D43",
"W  c #4B7C44",
"Q  c #43734B",
"!  c #437B4B",
"~  c #4A7D4B",
"^  c #547A48",
"/  c #436F57",
"(  c #4F7551",
")  c #437955",
"_  c #6C7154",
"`  c #A85B20",
"'  c #DB4B27",
"]  c #38873E",
"[  c #5B932C",
"{  c #4A863A",
"}  c #4A843D",
"|  c #588739",
" . c #548A3C",
".. c #4B9739",
"X. c #56973B",
"o. c #5C943B",
"O. c #6D9A2B",
"+. c #658D3A",
"@. c #64943B",
"#. c #689939",
"$. c #749B3C",
"%. c #5FA02F",
"&. c #59A639",
"*. c #6BA42B",
"=. c #7AB32E",
"-. c #68A739",
";. c #6BA33C",
":. c #75A93B",
">. c #6BB639",
",. c #78B737",
"<. c #7AB33C",
"1. c #79C43A",
"2. c #3B8648",
"3. c #2D8956",
"4. c #3B8659",
"5. c #2A965E",
"6. c #388566",
"7. c #32926E",
"8. c #458443",
"9. c #4C8444",
"0. c #488847",
"q. c #4C854C",
"w. c #4B8B4B",
"e. c #548343",
"r. c #5C8442",
"t. c #538B44",
"y. c #5B8C43",
"u. c #53834C",
"i. c #5B854A",
"p. c #538B4B",
"a. c #5B8B4C",
"s. c #4B9548",
"d. c #5B9443",
"f. c #569748",
"g. c #5B9B4C",
"h. c #478656",
"j. c #568A54",
"k. c #489658",
"l. c #559855",
"z. c #648A46",
"x. c #629442",
"c. c #649C43",
"v. c #6B9C43",
"b. c #669748",
"n. c #6B9C4B",
"m. c #759948",
"M. c #668954",
"N. c #659A54",
"B. c #749352",
"V. c #5AA348",
"C. c #50AB55",
"Z. c #58A858",
"A. c #58B659",
"S. c #6BA343",
"D. c #6BAB43",
"F. c #6BA44B",
"G. c #66A848",
"H. c #73A444",
"J. c #73AC44",
"K. c #78A949",
"L. c #68B546",
"P. c #78B747",
"I. c #66A755",
"U. c #79A755",
"Y. c #68B655",
"T. c #78B955",
"R. c #479766",
"E. c #499367",
"W. c #53AC6A",
"Q. c #6FB364",
"!. c #7BC646",
"~. c #72C84F",
"^. c #68C362",
"/. c #83AA33",
"(. c #86B83A",
"). c #97BD38",
"_. c #F08E0E",
"`. c #8FCA2F",
"'. c #88C739",
"]. c #95C838",
"[. c #98D73B",
"{. c #A1C936",
"}. c #ACD732",
"|. c #A6D839",
" X c #98E33A",
".X c #A8E43A",
"XX c #B6E839",
"oX c #B4F035",
"OX c #FAC43C",
"+X c #C4F439",
"@X c #D7FB3A",
"#X c #E5FF3C",
"$X c #839B4D",
"%X c #85AA47",
"&X c #85B646",
"*X c #8ABB44",
"=X c #95BB45",
"-X c #86BA54",
";X c #90B256",
":X c #A5BE49",
">X c #858577",
",X c #8CA963",
"<X c #EB9659",
"1X c #88C547",
"2X c #97C846",
"3X c #8BD746",
"4X c #98D545",
"5X c #8DCD55",
"6X c #95D655",
"7X c #A4CA48",
"8X c #A8D946",
"9X c #B4D947",
"0X c #AECF55",
"qX c #97E547",
"wX c #9FEA5C",
"eX c #A7E546",
"rX c #B8E647",
"tX c #B5F24E",
"yX c #84CB66",
"uX c #C1D755",
"iX c #E0D051",
"pX c #C8EE4E",
"aX c #C9F846",
"sX c #D8FC49",
"dX c #D9F454",
"fX c #E6FE51",
"gX c #C9EB64",
"hX c #1111FA",
"jX c #3243FA",
"kX c #4FBD85",
"lX c #F5B2A2",
"zX c #FFFFFC",
/* pixels */
"$ ..& $ * #.& o.P.G.* =.[.X.B ,.`.X.4 : = : `.=.#.'.:.#.'.c % % e.~.3.B i X.} 4 '.<.*.1 5 { * b B > 1 $.O.| X.'.<.X.{ # 2 ; & /.",
"o , 6 - : 5 5 :.o.{ 1 X.....Z V.,.c = 6 c.o.x.a. .S.- B y x } c y k.M j a B } 6 <.S.#.p.G.& + U 9.* & $X@X}.| ;.J.X.4 s R F.% * ",
"{ [ | < /.}./.1 1 2 1 2 T p.C 8. .i c D.e.r y x.W N = x ^ @ @ @  .@ @ @ e.v.x.4 3 v.#. .s 6 9.p.2 : s R *X<.|.}.4X@.x.:.z.g.n ^ ",
"&.4 * 6 }.XXO.| (.=.4 1 u Y u.v c % v Q W k T f.c N ..V.J.@ zX@ @ @ zX@ @ @ 6 | {.(.| ; N 5 |  .1 8.T a.# y v.=.[ :.{.c.F 4.k M.",
"] [ , #. X*.: 5 2 -.-.: l u f./ t ^ z.0 U 2 c p.x m @ @ @ @ OXzXOXOXOXOX@ @ - @ $.F.2X/.6 x.v.:.(.7 Q ~ | ).}.}.#.].+X.XD.V x | ",
"'.> | `.X.- 2 o.,.o.s ; T  .T 2 p $ '.i.y s C 0.n @ @ OXzX@ OXOXOXOXOXOX@ OX@ @ o.;.6 E 5 S.&X(.m.i.W f.|.oXXX].|.].(.eX XT T t.",
"*.= =.*.- | =.#.5 - ; 1 2 : * +.&XH.X.l.z 5 X.s ~ y.8.@ OXzXOXOXOXOXOXOXOXOX@ @ @ 4 c W @.@.3 * - 4 ; c.P.U , *  XaX1 T ~...d v ",
"& %.=.- $ -.t.S.;.D.{ | | | ^ b | '.<.p.b.).5 * y.8.@ @ OXOXOXOXOXOXOXOXOX@ @ OX@ X.X.} d.R - o.}.`.X.c : B $ $ o.3Xt.9 J M ;X,X",
", % $ $ $ 5 y X.d.D.1 6 {  .F.&X% $           1 o.@ @ OXOXjXjXjXjXjXjXjXjXjXO OX@ } T E 8.T 2 O.[ 4 } { -.E s i $ Z.h.g f 9 %XfX",
"= ] %.1 z.v.% :.P.F.:.`.`.(.o.1X      $ v.+X      zXzXjXjXO O O jX>XzXzX>X>X>XO @ X.p.#.*.| | :.z.$.X.F.0.$ 4.J w a E f + 8 W oX",
"h ..5 & 2 '.R [ (.(.- $ * D.S.    7 :XuXm.=.(.@. .      jXjXjXjXjX>XzXzX>XzX>XjX<.c.d. .3 #.#.{.+X{.| T d.T s v p.*XP.N.e.e q >.",
"> , % 6 %X].:.| #.| < ; l       4 % & :XfX}.*.(.&X      <XiXjXjXjXjXjXjXjXjXjXjXy.*X$.R , 9.d.].).4 l m C y y m P.o.o U g.w.t V ",
"> # & O.2XK.XXz.6 +.#.6 * y =X}.#.X.; 1 {.].S.          <XiXlX<X<X  <XlX<X     .&X|.=X$.1 * e.=.6 ^ X.z d y.3 & # $ $ : k.k.4.S ",
"[ :.).{.H.C :.:./.).9XuX:X6 l .X`.X. .3           1 :.  <XlXlXlXlXhXlXlXlXhX  1.{.=X7XH.8.c.#.t.l R 2XQ Y o.2 c l M.b 8.e g 7.e ",
"`.@X@X}.o.z.W d.v.<.6 m T +. .v.|.          |.(.f.v.`.  <X<XlXlXlXlXlXlXlXlX  f.(.].Y q e.,.: a.x.W ~.N.s | :.} Q n.c.d.;.X.J u ",
"oX}.< | H.c.r.2 , o $ 8.5 -.. . .     @.%Xm.G.<.e.<.;. .    <XlXlXlXlXlXlX<X  8.X.$ = f.S. .k u.[.[.l.h.H.|.}.&X^ &X2X'.'.D.4 B ",
"{ & X 8.g.X.Q 1 ^ z.Y y.(.. . . 8.- $.).e.b.S.0.W u.L.F.9.    <XlXlX' ' <X  s T i B.9.m E 8.G.D.9. .d.Q r.o.(.4Xp.S.&X&.] | +.| ",
"% > o.a , { : m.K.+.7Xz.. . ;.{ = z XXXX@.g 2.n 9.S.V.>.d.  O   <XlX<X<X  U B.K.# &X;XY u H.K.I.d N 8.4 ..{ u -.g.T X.j } 5 x q.",
"w 1.%.- ; | 2 @.'. .x . . %XD.&.4 r.,.% u 8.l Q t.          O O .       } C i 9X9X%Xm.2Xz.1 u I.a.v 8.s.-.&.B f.g.p.2 K.9X*XK.y ",
"> ..o % 1X,.'.:.=.}.* . |.2X(.| T K.W E !.V.j T     O O O O . . . . O . . . E T pXsXm.S.6X$XB h.i N E 9.:.#.c F.w.N K.aXrXaX%XU ",
"] $ o U ;.,.,.$.8XoX|.. 2XP.[.#.z 1XP.9.x Y U     O O O O O O . . . O . O O . rX*X'..XF.g.fX%Xo +.=X* T b.u.#.:.s.F 5X5XtX;.o = ",
"% 9 r $ J.d. .oXJ.:.=. .0.{ X.&X#.J.*Xt q 8.      O O   O O O O O . O . O . O . 8XL.C.A.F rXrXR aXY T c.1 F.rXtXV.3.^.A.A.% y $ ",
"# w $ ; C q f...= 1 % 5 | o.j <.6 u X.U.&X  O O O O       O O O O . O . O . O . u g.v.Z.H J.qX1XT.j , !.h.m b.4X~.S 6.6.P h.E.s ",
"h } :.o.m f c 5 $ * ,  .].(. .(.>.n # U.  O O O O   .       . . . . O . . . O . o.rX@XXX>.0.L.A.Z.Y J ] t.V.r T T.h.g W a W.F.$.",
"B  .- q p r R D.t E | ; rX(.:.].(.2X%X+.  O O O O   . ` _.iXiX_._._.O . ` . O . qX4X'.>.1.s.2.k.h.J u.&XI.( p.F b l.j.R / Q.;.1 ",
"n x t a u.t.d :.p U.6 * [.+.=X+X#X9Xz.  O O         . ` iX_._.iXiXiXO . ` . O . . P e p 4X!.4.R.a F.eXa.G ) P.J.p g W.E.j.) o 0 ",
"M # X o J G.u.b. .P.6 J.t.:.+X@X8X8.|   O O O     &.. ` _.iXiX_._._.O . ` ` . . . g q p.qXs.7.I l.Y.i.m d B.9XwXl.a 6.I D D y d ",
"q N 1X1XI.w.r ( c.s.s L.0.>.[.eX5 X.  O O O O   ..... ` _._.iXiXiXiXO . ` ` . O . L q p.V.9 g D R.G -XW.h.a U !.Z.g L G A ) Z.Y ",
"H A.I.t.N I.D Y ! p.v.d.2...P.4 = g.  O O O O   > V.. ` _._._._._._.O O . ` . O . q 0 c 0 9 0 D P l.Q.k.Z.I.t i T.Z.J h.D E.D l.",
"j j C S q F I.Z.q.x.P.T.J.2.} | .X  O O     O   0.M . . ` _.iXiX_._._.O . ` . O . T j.p 0 Y p 7.6.E.F F j.D h.v Y T.U.R.I L $ U ",
"h &.8.i 4.h.l.Z.Z.G.2.j q.F g.3X:.  O   lXlX  b.#.s.{ . . . . _._._._.O . . . O O . . f b j.$Xt / E.J 6XI.k.k.Y.h.j.I.Z.I g W.F.",
"3.3.q + f M.6.4.J V y ~ b.w.f.M y a.  lXlX    #.1. X X. . . . . . . . . . . . O . . lX. . 0.Q.Q.r b 6XwX! o 9 9 z.P.l.R.I D I 4.",
"5.3.2.F ( -XS J k u 4.4.w.L.P.J.^   lXlXlXlX  ;.'.,.D.. ` _._._._._._._._.. . O . lXlXlXlX. n W.J ( Y.-.$ _ W v 1X4Xm S J A l Z ",
"3.A.A.S K.-XA D k n V M w # f.L.1X  lXlXlXlXlX  .X'.1.. _.iXiX_._._._._._._._.. . lXlXlXlX. K.! w.T.s.2 d ( ;X( P.z u @.f.F k.A.",
"h H G A h.3.9 f * 9 a j d.1X!.>.P.  lXlXlXlXlX  B B Y . ` _._.iXiX_._.. _._._.. . lXlXlX. dXdXb.o.K.0XgXdXm.$Xz.m u 4 U y.! b d ",
"H 2.d t U.n p | b.c.y T { 8.x u 9.  lXlXlXlX  q.q.j . _ zX` ` ` _._._.. _._._._.. . . . W '.tXd.r.dXfXuX1 l d m.M.U.=Xw.c.S.y - ",
"% s.u X 9.U.) 1XT.!.~ W ] s z.%X(.S.        h.k c.Q . . . zXzX` ` . . _.. . _._.. 1.a.rX|.&.L.P.0XeX!.x # n ;.} ;XsXpXm.<.@.9.+.",
"q { !  .r w.) (.F.F.d.D.: r ( :XsX|.F.*XK.V.t.Y v.L.. zXzX. . _ . ... . ` ` ` ` _.. -X|.oX[.0.P.3XV.x t.m.K.].@.t %XaX%Xf.@.#.`.",
"B 8.H.^ H.K.x #.*XF.9.c , t.F K.-XK.8X9X4XD.D.P.N.. _._._.zX_ _ . s.-.. ` ` ` ` _._.. : B d.s.l.V.l Y 1Xo.Y _ uXuXz.<.:.z.7X(.`.",
"M 2.4 ^ %X(.@.0.z.2X#.U } t.p.B q E (.(.v.*X4Xp.J . _._._.` ` . 2.B E n.. ` ` ` ` _.. C V q.f.) ! = f.l.i.u c d uXsXK.%X5X'.]./.",
"5 % r.pXaX2X:.z.7X:X=X$.1 C t.E <.8X.X`.:.XXaXrX. _._._.` ` ` . :.4 : ).. ` ` ` ` _.. z.c a U.i.b M.b i R  .o.1 $X}.(.K.8X .6 /.",
" .-.*.3 v.8Xy.2X=X2X=Xl.0.F.G.(.oXeX8X].oX(. X. _._._._.` ` . p.:.9X9X|.*X. ` ` ` ` _.. 0Xm.G l.k j.=Xd D 0.t.E j.9X9Xn.T.3 /.{.",
"=., >.s z K.g.f.'.:.$ w g.x.t.1X#.x n F.aX4Xl . _._._.` ` ` . /.#XsXpX{.d.. ` ` ` ` _.. u.m.a.z.z.! 3XN.m =X7X&XM.Q 5X2Xw.:.:.-.",
"@.'.'.| z ( a...{ 9 2. .G.> n q.m N q N !.!.. _._._.` ` ` . e.eX+X{.2 H.(.. ` ` ` _._.. y.(.I.n.|.qXk.j.2X|.(.+.m.$Xu.V.i.n.@.5 ",
"5 3 W !.0.p z % a $XS j B w.c.V.s.C n w ) . _._._.` ` ` . 5Xp.>.| $ q V.P.. ` ` ` ` _.. :.'.1XY.g.J.I.J e.i i.eX@.R I.C Q g.P.x.",
"l 8 r s.s.m $X| q 7XB.Y % U.F.g.i J 4.J g . _._._.` ` ` . G.C J.:  .<.C 8.. ` ` ` ` _.. D r.;.f.E m H.D 0.! 4X8Xe.l G ) d.Q G.D.",
"J * V.h.J j D gX=XH.F.2X^ t a l.w.A v h.1X3X. _.` ` ` . f.t.1X{ k >.,.^ N c.. . . . . . m.%XJ.J.#.u.<.U f.w.J.+ d d.c ~ s 9 p f.",
"o x Z > v R ; ^ aXpX^ D.0XB.J n # Z J I.S.. . . . . . s.Z A.j q Z &.% z 4XP.2X. . . . z 9X[.*Xr.~ ;X*X9.U Y * y.[.@.* y p ~ t z.",
"# J k t !.oXsX9X&X6X6Xp.P.fXb.q m.;Xd b t . O O . . R.G 2.4.v.b.2.x t T G.'./.. jXjX. 2X[.1X[.a.Y 4X&Xt Y z.Y &X1 y * y ( Z.j.m ",
"s.S S p.1X:.:.].3Xs.C.V.m aX2Xy.pXy w.^ . . . . . . R.H F h.q.V a t s i V.D.. jX. . . . .  .x.-XK.P.&Xb R P.W T 1 K.R f Q b E.f ",
"H P S E K L g g % d.j.s.k 3X1X5XY.j h.. jXO O jX. J P H m J L J t i z W w.t . jXjXjXjXjXjX. . K.c.l p.6XeX%XY N.&XF.J.v.S.U g :.",
"5.5.g 0 7.7.L * '.aXsXeXa.f.L.A.f.J . O O O jXjX. w.Q.0XpX9Xh.g T ;.:.#.T D . . . jXjXjXlXlXlX. 1XB i $XsX(.K.5XP.V.l.%X8Xu.F.8X",
"5.h 8 g P 8 0 >.qX2X,.>.L.h.h.R.M . O lXlXlXlX. . U.gXsXrXr q J >.! l t f y f 1X- . . . . . . . XXpX9XB.9X|.b.1XF.u.8.D.8XK.[.4X",
"5.j.m.p.L L z s.G L q Y eXL.4.7.A . . . . . . . ) ^.~.6Xc X 9 B A I a g G n.D U.J h.$.b *X*X7XsXsX/.: - m.rXN.V.q.q.J.g.y.L.>.:.",
"T.&XR 3 Q D g g g e q &X3Xh.7.I I.~.j.a Q 0XpXeXh.kXW.R.s F.1XI.A g q 9 K k.l.I.u.P.b.m.S.G.4XXX6 } G.P.S.@.j.2.G.2X&X&.W q.9.W ",
"t.r ).rXpX4XT.Y e K t Y.x 8 A G h.D yXW.4.a K.6Xl.P 6.I Q.wXtX~.D t N.1XT.k.y m n.s.) 2.&.w.P.y.z.2Xf.w.G.k.C d.S.r.2X[.L.9.c ! ",
">.>. X4XtXeX'.p.q 8 r ) 8 0 0 f L Z.Y.4.W.k.q h.Z.G ) J W.p.f a 4.E.~.g.0.Z.q.p a.J F.H.g.! q.&XtXu.k m L.f.k 9.T *Xn.u.H.F.g.C ",
"3X~.`.'.6 t t L r ( ) 0 + t g I I k.g G j.D ) p h.R.G I J X G L J h.m F g S k.I.q.y.F.L.P.j.C 5X! ~ q.p.! Q W 8.e.i.w.c.5X4X[.1X",
"k...L.f.w q e g W.4.8 f f M.( t h.j.D 6XI.4.Z.Z.G 7.I D A kXkX7.g J T.m 6.h.l.A.k.Y.9.n u n ! ! d f.w.a ! W j.G.y.q.V.e.~ : 2 @.",
"h 3.6.h 9.b.n.! J M.j.D l.p.yX) t C 6XqXQ 9 8 9 B.E.P g 7.L R m.( 4.g q q ( E.7.4.J s U #.c.T T G.p.h.p ~ ;.b.l.g.V.C.b 6 r & ; ",
"H h j ,.+X8XJ.y.p.u.H.T.N.Z I W.A u.~.V.t ^ Y p 8XF.S S g r 9 N.fXrX^ m g 5X) G A u F 4.4.p.J.x.T s.V M.q.D R g.k.g.k.N x.r ;.'.",
"w M A.~...# 4XaXtX8XN.g.rX:X( m j.U.3.Y f Y ;XR c.% g F u 9.a 8 y.tXtXY.d 6XI G l u n v n # r d.} } > F.H.j.K.f.t.w.E ^ P.n ;.,.",
"w 2.2.] U 7XtX3X&X~ q.a 1XsX7Xw.r.&X:XdXdXB.$XM.U y #.<.1X1.G.@.R P.~.L.N C.K t * $ 9 j j * ;.,.,.-.d.y.P.b.*X2X:.f.l.k.l.J $ ; ",
"h T +.* @.[.1X'.`.@.U * #.4XrXv B.dXfXgXY * d %Xp.P.8X'.'. .N 6 *X3X~.k.E E g z ^ H.D.q * :.;.o.O.-.P.].-.;.(.|.&XS.P.! G h.v # "
};
