/* XPM */
static char *porta[] = {
/* columns rows colors chars-per-pixel */
"64 64 256 2 ",
"   c #141D04",
".  c #261B0E",
"X  c #1A2B13",
"o  c #28260B",
"O  c #262A18",
"+  c #322E14",
"@  c #28341B",
"#  c #35361A",
"$  c #1B3736",
"%  c #2C2D23",
"&  c #362C26",
"*  c #2B3825",
"=  c #353927",
"-  c #393A32",
";  c #562B03",
":  c #4E320F",
">  c #58391A",
",  c #663505",
"<  c #71370C",
"1  c #443828",
"2  c #573926",
"3  c #453B36",
"4  c #633B25",
"5  c #384317",
"6  c #1B4937",
"7  c #2C452A",
"8  c #34432B",
"9  c #3A462B",
"0  c #39552E",
"q  c #27483B",
"w  c #354333",
"e  c #3B4433",
"r  c #3C4B34",
"t  c #394B38",
"y  c #2B553C",
"u  c #3A5539",
"i  c #28663D",
"p  c #38683C",
"a  c #3A753C",
"s  c #4E441C",
"d  c #794504",
"f  c #74481A",
"g  c #464829",
"h  c #594927",
"j  c #50512F",
"k  c #454837",
"l  c #444D3B",
"z  c #43533B",
"x  c #485639",
"c  c #585839",
"v  c #674626",
"b  c #755827",
"n  c #675638",
"m  c #715130",
"M  c #45663B",
"N  c #56653A",
"B  c #4E7235",
"V  c #47773A",
"C  c #6E6E35",
"Z  c #65663A",
"A  c #79693A",
"S  c #173446",
"D  c #223B40",
"F  c #453F41",
"G  c #1E4D49",
"H  c #264947",
"J  c #2A5746",
"K  c #375A44",
"L  c #2C5750",
"P  c #2B6549",
"I  c #386946",
"U  c #3B7748",
"Y  c #2F6A54",
"T  c #3A7655",
"R  c #2E6E61",
"E  c #4F4F4A",
"W  c #445543",
"Q  c #495845",
"!  c #4B5A44",
"~  c #545A45",
"^  c #585953",
"/  c #6F5947",
"(  c #476847",
")  c #576547",
"_  c #467746",
"`  c #577848",
"'  c #576556",
"]  c #536F56",
"[  c #676948",
"{  c #776747",
"}  c #667549",
"|  c #777549",
" . c #706A58",
".. c #687656",
"X. c #797756",
"o. c #595968",
"O. c #586B66",
"+. c #517470",
"@. c #687866",
"#. c #767B69",
"$. c #677978",
"%. c #727472",
"&. c #833C0D",
"*. c #86510C",
"=. c #955805",
"-. c #B2651C",
";. c #8B552D",
":. c #996536",
">. c #916832",
",. c #A06026",
"<. c #A96B27",
"1. c #B86A26",
"2. c #A76C37",
"3. c #A87537",
"4. c #B57532",
"5. c #CA762E",
"6. c #C97B37",
"7. c #8F714C",
"8. c #976E56",
"9. c #867858",
"0. c #A67849",
"q. c #B37A4A",
"w. c #A67C54",
"e. c #8D7A66",
"r. c #49863A",
"t. c #56883A",
"y. c #4E9939",
"u. c #57963A",
"i. c #66983A",
"p. c #719936",
"a. c #5AA538",
"s. c #68A53B",
"d. c #76AA3B",
"f. c #6FB030",
"g. c #7AB538",
"h. c #76C83B",
"j. c #3A8852",
"k. c #34986C",
"l. c #4B8747",
"z. c #568747",
"x. c #599548",
"c. c #4D9252",
"v. c #6E8E4F",
"b. c #669946",
"n. c #58A650",
"m. c #68A745",
"M. c #77A846",
"N. c #78B646",
"B. c #6FB051",
"V. c #509F64",
"C. c #798768",
"Z. c #748D75",
"A. c #77CA4D",
"S. c #63CF66",
"D. c #B6853B",
"F. c #88AE36",
"G. c #87B93A",
"H. c #CC8B3D",
"J. c #89C538",
"K. c #97C738",
"L. c #93D035",
"P. c #ABD636",
"I. c #9CE033",
"U. c #B2E938",
"Y. c #D1F83B",
"T. c #E1FE3F",
"R. c #8E8756",
"E. c #BA8749",
"W. c #A8865A",
"Q. c #BB8958",
"!. c #B29158",
"~. c #88B744",
"^. c #8CB34B",
"/. c #A8BD43",
"(. c #958867",
"). c #989469",
"_. c #8E8F72",
"`. c #A78866",
"'. c #B98B66",
"]. c #A99568",
"[. c #B79869",
"{. c #A68974",
"}. c #A79577",
"|. c #B69979",
" X c #8DA577",
".X c #A9A479",
"XX c #B7A579",
"oX c #C58949",
"OX c #CE9749",
"+X c #C38B54",
"@X c #C7945A",
"#X c #D6A34D",
"$X c #C59A6A",
"%X c #C7996E",
"&X c #C8A676",
"*X c #D2A875",
"=X c #E4B16F",
"-X c #89C546",
";X c #95C646",
":X c #95D64A",
">X c #AED449",
",X c #94E342",
"<X c #B0EE49",
"1X c #CCF34C",
"2X c #E2F74D",
"3X c #597A86",
"4X c #749087",
"5X c #4FBD85",
"6X c #8D958F",
"7X c #A89C8D",
"8X c #92AB8B",
"9X c #B9A689",
"0X c #B0AF93",
"qX c #959DA7",
"wX c #97ADAF",
"eX c #AFADAC",
"rX c #BAB7B7",
"tX c #C7AB8A",
"yX c #C9B18E",
"uX c #D7B488",
"iX c #C9B597",
"pX c #D7BA97",
"aX c #E4BC91",
"sX c #CEB2A2",
"dX c #C8BAA7",
"fX c #A6CF9F",
"gX c #A8C998",
"hX c #B1CC99",
"jX c #A9CBA5",
"kX c #B3CEA9",
"lX c #B7D4A7",
"zX c #B8C6B8",
"xX c #CFC292",
"cX c #D9C999",
"vX c #E6CB9A",
"bX c #D1CEAF",
"nX c #CAC7B7",
"mX c #EAD4A6",
"MX c #EDD4AE",
"NX c #F1E4B4",
"BX c #A7BAC0",
"VX c #C1BDC2",
"CX c #B7C9C7",
"ZX c #B2CCD0",
"AX c #C6C6C7",
"SX c #CFD3CE",
"DX c #D9D7D8",
"FX c #E9DAC7",
"GX c #F0DFC5",
"HX c #F6E5C9",
"JX c #EDEAD3",
"KX c #F8EAD6",
"LX c #D1DBE1",
"PX c #DAE3E1",
"IX c #E6E7E8",
"UX c #F5F1EC",
/* pixels */
"` ` t.v.0 s.0 u.N.m.i G.L.u.U f.K.u.r.a y p J.f.p.G.d.i.J.p y y z.A.j.j.6 u.r.B G.g.p.M r.r.u I U i V F.p.t.u.J.g.y.r.6 V K r F.",
"6 a B M p B V s.x.r.M u.u.y.j.m.g.I i V b.i.b.x.t.s.a U J I r.I J c.Y G P j.r.V G.m.s.z.s.y q I l.0 q R.T.P.t.s.M.u.V K _ m.y u ",
"r.u.t.B F.P.F.M B B M V _ c.I l.y.J ( m.r.q J b.l.I p I ` x.a ` t.G P j.z.i.i.V V i.i.t.K ` r.z.V U P _ G.g.I.P.L.u.i.d.v.x.P ` ",
"a.V p B P.U.p.t.g.g.V p J ( z.J p J I U _ Y ( x.I I y.a.N.i.( b.A.B.U c.J.M.t.t.K.~.t.p U V t.t.M V _ z.q y p.G.i.d.K.b.Y j.Y x.",
"r.y.B t.I.f.p V V s.s.M p y x.( H ` } D I V I l.I I m.I y V _ q P k.j.l.s.U p p.i.m.;XF.B x.p.d.F.t.Q ] x.~.P.P.i.K.U.U.m.U I r.",
"J.p t.J.a.p V i.d.u.p I _ l._ U J J L.z.J K U l.4X3X$.$.O.$.3X$.Z.Z.Z.C.$.O.O.O.' ' O.O.O.O.' ^ E ^ E o.o.4XU.G.I.K.J.<X,XV _ z.",
"f.i f.f.0 t.g.i.V I p M V a u t.~.M.x.n.( V u.K R ^  ./ m n / / [ A C b b b b b f b b b b b b m ;.;.;.;./ e.I u ,X1XM a A.y.K P ",
"7 f.f.p q a.t.s.s.s.V t.t.t.` ( B G.g.x.b.G.V K %. .7.:.:.:.0.2.3.<.<.<.<.<.<.<.<.<.<.<.<.<.<.2.<.<.-.q.7.e.q H u.:Xl.S T U ^. X",
"a y y 6 q V y u.x.N.p B t.l.m.~.y y i b.1X1Xp.4Xc >.;.<.,.1.1.4.4.1.1.-.-.1.5.5.-.-.1.1.1.-.-.1.-.=.1.1.2.7.J G q n.c.L L S M.2X",
"6 r.a.M v.b.y d.N.m.g.J.L.G.x.J.t.V z.6 i.Y.P.^ c f < *.&.=.-.D.6.6.6.6.6.H.5.5.5.H.5.5.5.1.1.1.1.-.1.1.2.m j.T H J U L D S z.<X",
"P y.r.t V J.B u.G.G.p 7 u m.m.i.i.C /.>Xv.F.J.! Z >.;.=.=.=.d d d *.;.,.4.D.oXOX4.6.5.6.oX6.E.!.0.,.;.;.;.4 k qXc.~.-Xv.z.G 6 f.",
"B a y B ^.G.d.t.i.t.M p p _ f.i.B y K /.T.>X] l : f *.,.4.4.@X@X3.3.>.*.*.*.d d *.*.< *.*.d , d ; < < &.;.m 3 O.N.u.$ I n.c.G U ",
"..6 q s.;XM.U.b.B i.i.r.u J ~.P.i.t.p M P.K.^ E n b *.*.d d d d *.d d d =.=.=.=.=.=.=.=.=.*.d d f ; < &.&.;.n E wXG D P j.k.c.L ",
"..) } } M B ..0 0 _.7X8X8X). X.X6XwX$.$.qX%. .;.;.3.E.H.OXE.!.!.D.D.D.H./.#X#X#XH.#XOX#X=X#X#X@X*X:.:.q.,.:.8.9.O.qXqXqXBXBXwXBX",
") x ) ) x ` v.B # A 7.>.>.>.>.>./ 7X9.E {.n 7.0.q.5.H.H.OXE.@X!.!.!.!.!.D.D.D.D.4.D.<.>.3.3.>.>./ 2 4 ;.&.&.< > h 9./ /  .{ } | ",
"@ @ ) ..x x C s N W.W.0.0.:.3.0.8.7.> 9.7.; *.< < , &., < ; , ; ; , ; ; ; ; , , ; , ; ; ; ; ; ; : : < ; , < , > 4 7.v 4 ;.>.:.>.",
"@ X x ) g = g + C >.E.0.;.4.;.f 7.e.2 8.4 4 < , &.< &.&.&.&., *.*.;.;.*.;.,.,.2.2.2.,.,.2.2.,.q.:.3.2.+Xq.q.w.4 2 8.8.& 4 ;.4 &.",
"6 0 z l # # 5 s h ;.:.2.;.,.;.4 e.& / tX2 > w.8.w.w.'.'.@XQ.q.+XQ.2.+XQ.3.+X+Xq.q.+X+XoX+X+XoXOXoXOXoX@X+Xq.'.;./ 7X{.m 4 m 4 4 ",
"7 7 r g # o + o h v < &.&.;.4 8.{.F {.e.v m W.w.'.q.'.'.%X'.q.0.0.$X$XQ.*X%Xw.%X*X%XQ.Q.*X*X%X%X@X@X@X%X@X%X%X7.4 e.|.4 / ;.;.:.",
"X @ # & 1 + o o h n ;.;.;.:.;.7X8.8.sX/ v 7.e.w.%X%XsXtXpXuX%X%X[.|.uXpXtXuXpXvXuXaXuXuXuX*XaXaXaXaX*X*X%XtX'.v ; / 8.& 4 ; < 4 ",
". & . . 1 & + + s h v m f 4 2 {./ : |.m : : {.9X{.|.sXsXsXtXtXpXbXiXiXpX9X9XiXtXsXiXtXdXsXsXpXsXuXiXiXuXuXaXtXm 4 m e.: 4 ; ; < ",
"& & & . 3 & . o : h ; ; > > > 8.{ 2 }./ n 2 9X9XsXsXVXsXsXsX9XsX7X0X9XeXFXdX7X0XsXiXiXbXsXeXsX9X0X9XsXiX9XpXpXw.7.7.9XW.8.w.w.0.",
"& & & 1 3 & O # c { :.8.w.w.8.7Xe.|.tX9.9X(.dXeXFXDXVX7XAXFX7Xe.JXSXDXUXDXeXeX6XnXJXUXUXeXe.VXIXDXAXFXbXsXyXtX{.{.{ 9XtX[.&X%X'.",
"& & & 1 1 = x [ _.{.w.w.w.tXw.9X(.9X7X9.xX9.dXrXAXDXVXrXUXKXqXe.DXUXDXPXdX6XeXAXIXUXDXSX7Xe.VXIXIXAXAXJXFXdXiX9X{.m `.XXW.%X&X@X",
"& % & 1 e c ..N C R.!.0.q.'.w.9Xe.7X9..XbXR.0XkXAXPXSXSXPXDXqX7XIXSXLXLXo.6XVXqXIXDXAXDXVXqXVXIXLXZXPXDXnXbXbX}.(.h 7.&X].$X$X@X",
"% # j c g N ) } Z R.W.w.Q.'.w.{.7.|.{ ).0X0XzXSXIXSXBXAXLXSX6X6XVXPXDXeX%.6XqXrXeXVXDXVXqX%.qXDXSXzXPXDXSXeX}.c s # | XX!.[.@X!.",
"# 9 ~ [ j j N B B 7.W.Q.'.'.w.w.9.9XX.0X X_. XgXZXIXLXLXSXIXAX6XDXUXLXLXIXDXVXIXDXDXDXDXAXVXVXDXIXZXLXIXkX^ g = 9 s R.].[.@X@X@X",
"@ 0 [ [ N g M B i.R.0.0.'.q.w.|.{._.h kXhXgX X X8X8XzXSXrXrXdXVXrXeXVXeXVXeXeXqXeXqX7XeXeXsXeXeXqXqXqX' k 9 ! z x j C.9.].$X!.E.",
"+ g / ) N j j B } >.R.3.Q.'.w.9X#. .N 0XgXgXfXfXgX4X6X4XW - & - F F o.3 & & F & & 3 3 3 & 1 3 3 $ w E w u Q ( * w 0 ..{ ].*XE.D.",
"5 j c c c ) B 0 B C 7.W.$X'.w.}._.^ 8 0XlXhXfXfXlXlX8XC.= 3 E 3 F 3 3 2 o.3 2 o.^ E 3 3 E E E 3 k % - W K * w ( u u X.[ R.$X@X@X",
"+ j h 1 c ) ( M B C A 7.Q.'.(.}._.- r nXhXgX XlXfXlXhX8Xk % 3 ^ ^ 3 & E e.3 & 3  .E & 3 / / k + + - ~ W u @ * y K u ] n A $X+X+X",
"+ j g # l [ ` x N Z A >.W.'.w.}.6X/ r jXgXlXgX-XB.fXkXZ.w W ^ ^ o.o.%.3X3X%.%.3XO.' ^ ' o.o.E E ~ - k l z X $ ( u w ..[ >.*X+XoX",
"+ [ [ g ) ' ..N N Z b A W.`.w.%Xw.e...gXgXgXbXv.v.fXjX4XP S.S.j.I c.j.x.<X<X~.b.c.c.b.-XB.n.I V.j.k E ! z   u r r 9 X.}.`.$X@X+X",
"s e.~ # z ) @.) N } C A W.W.w.'.w.{...8XlXbXhX| 0XjXwXV.+.j.S.n.z.T A.A.A.i N.1X<X<X;XV.:X1XM.] c.H W ! u   t 0 k g 9.XX[.[.$XE.",
"h _.g O * z ..x x v.| A R.!.W.`.8.{.@.gXfXB.C.v.0XgXjX4XR Y R V.B.l.n.c.l.^.1X,X:Xb.c.P ] 1X2Xn.x.e E ! z X u r k 9 9.yXXX!.*X!.",
"n _.+ + O e ~ * j [ N A (.].'.'.e.{.v.jXkX Xg 5 x ` jX4X+.B.z.U n.l.B._ ] :XN.:X,Xg.z.( _ -X<Xb.` w ! ! u X x r r 9 #.0X).).XX>.",
"[ (.  + & = - O x j s [ }.}.}.{.8.7XC.8XjXlX)._. X XjX4X4XP m.N.j.m.m.L P l.I m.A.h.z.<XI.m.m.N.>Xw E ! 8 * z r r e X.8X| A R.A ",
"{ 9.. + % % % O = # + [ }.{.{.(.e.9XZ.8X X X[ R.bXlXkX4X4X>X~.a j.y.m._ b.B.I N.-XN.^.U.U.L.l.N.:X= Q ! @ 7 u t t e C.C.j c C b ",
"n 7.. + O O X % X + o c 9. .e.{ e. .v.lXlXlX| (.v.Z. X4XqX2XG.i j.y.s.K z.:Xz.z.-XK.i.p U a.c.n.n.= Q ! @ 9 z t u W Z...8 c ` C ",
"h / 1 + . % % = O = O g E k / c 1 c V.lXgXlXR.0XcXbX8XZ.4XT.F.I j.a r.b.^.;X;Xb.s.m.` T U l.x.T _ - ~ ~ @ r ( r t W 6X) @ ..z.C.",
"2 [ 2 + O & % O O % # = 9 l ~ l g x _ jXjXlXX.xXxX XnX8X4XI.u.~.f.V a G.:XN.<Xb.z.M.M.v.( P B.z.K W ~ ~ X r x u t t Z.' * u ( ` ",
"n Z 1 # O - - % O X O 8 l c E ~ c x T jXjXFX9.XX9.v.lXZ.4Xy.s.z.d.>X>XU.^.l.M.M.^.;X>X>X>Xv.+.z.L k Q ~ X r 9 w W K Z.W @ u ) M ",
"n [ g 1 O 3 E = * O @ k ~ z z ! l x ( lXlXbXv n j N lX8X4Xa i M.T.T.1XK.x.v.c.b.g.-X} ] z.b.z.x.x.- ~ z @ 9 X 8 W w $.K @ 0 ( N ",
"c Z c ~ = - E E 9 7 9 x ) Q u r z x _ jXbX0Xm (.| j hX8XP _ l.U.Y.K.M F.~.B.v.l.r.H y z.z.^.m.m.>X- ' z # 9   # k = #.! X @ z ` ",
"j N ) [ g x l l @ 8 9 0 u ! u r r u _ jXlXR./ vXR.N  X4XY ;Xx.s.V y H n.N.s.] _ ` v._ c.M.J.~.B.n.w O.l @ #   8 l = #.! @ @ 7 B ",
"s g j N z ^ k - 8 z x 0 0 M M u 8 y ] jXkXn 4 yXR.|  X8Xb.m._ m.M z.N.I l.b.l.M.^.B.>X^.K z.d.x._ w ..l O # + # k e #.E @ u ) ) ",
"5 5 9 j z ~ * 8 9 x x M 0 M M u x 7 _ jX_.X.9.9X7. X X8Xc.c.-Xr.P h.g.z.I b.z.b.J.t.I ^.M.~.M.M.b.e ' k O O = # g 3 #.x @ c } ` ",
"X 5 9 g 9 l O e 7 0 x x M u M ( u @ _ PXC.}.{.;.)..X XZ.j.n.P G U a.6 I :Xg.-X~.F.P.I I >X;X-Xz._ W ' k O @ g o k = #.x O 8 ~ [ ",
"5 @ r * k e * * * w z ~ K w t u t 7 ) 8XC.).7Xh .X0X X_.j.T b.b.j.I H _ m.J.g.M.>XU.P.-XL.-X:Xz.( - ' k X = l % u r #.W O O k  .",
"9 8 e = W t - - w w r W t w w u w X ( nX[ [ (.j ).Z C._.Y l.l.T y H J J n.s.` <XA.g.J.m.x.u.m.^.M.k ~ = O 8 r O e e #.l O X = k ",
"* w * O e * 8 r W e w e - * * w * * ] bX_.8X7X[ bX(.0XC.Y T R R H P p _ l.H c.m.U I p t.z.M.( B.b.e l O O r e O * r #.l o O O % ",
"Q ) * @ 8 @ e l W - = * * O O * X * ' nX7X! j _.nXzXSX#.1X>Xc.L V s.M.i._ I I x.u y U u.~.>X} F.-Xk e X * z 9 * @ l Z.k X O * O ",
"..C.r 8 z 8 8 e E = O O O O O & % * ' rXeX' O.6XCXnXAX6XP.D G T s.l.P H H L L ;XI Y b.M ~.U.^.P.U.e e X = x r 8 * x Z.r   O * O ",
"] C.r u ) ( e r ! - % % & % & - - - $.wXCXCXLX4XZXSXCX6X( $ S U Y R L L T v.Y v.T c.p.I ~.~.;X2XT.= r @ r ! u r r ~ Z.w   X @ O ",
"u ( * 8 ] ..t Q ' z * = - - - W W - O.CXCXwXZXwXCXLXZX4XJ B.^.B.L L G S R c.c.B.c.N.b.b.m.m.:X<X` 8 z w Q Q u u W W Z.u * * * * ",
"u z @ X ) @.w ~ @.! q - w e W ^ H Q ' jXLXZXZXBXBXZXBX4XB.<X<XS.Y H n.:XB.V.H ( b.c.T l.a.x.N.z.x.e ~ Q ! Q K Q K u @.Q t t z K ",
"* ..k X z ' ' w Q Q K w w K W W u Q ' zXZXZXZXZXZXLXBX6XV.z.L L T V.A.x.l.V.l.J z.T B.m.x.l.l.N.<Xw Q ' Q ( W K ( t ] @.u K Q K ",
"& ~ k # r ) Q * Q Q W u K W K t * 9 ' zXCXZXZXZXZXZXCX4XT S Y R R j.I Y R L c.B.z.x.m.B.N.c.] -Xl.w Q ! Q ' K ( K Q @.] * 7 t t ",
"o % # O = l ) * l z u r 9 7 * % = 9 ! kXzXCXzXZXZXZXCXZ.R 5X5Xk.R T N.Y k.j.V.V.V.n.l.T J I _ l.J w ~ ~ Q ) z Q x u O.] t K Q u ",
"# o o + . # c # # g j x x c ) ) } ) ) 0XkXzXzXSXzXzXeX6Xk.R _ M.] j.L G H ] c.k.j.Y K I i.b._ I b.= k x c ~ N ) ) x ..C.C. X_._.",
"# o + c N C .X).| R.).R.R.(.)..X.X_.| _.}.rXdXdXbXnXeX0X7X7X0X7XeXdXdXdXdXdXdXdXbX0XdXbXdX7X9XsX9X).(.X.C N j g j g v.v.R.C.(. X",
"| | | (.).)..XXX9XyXxXtXXX[.XX&XcXmXcXmXmXMXKXGXGXMXbXbXbXbXKXKXFXFXUXHXKXFXFXDXbXbXbXFXMXmXMXNXMXMXmXcXcXcXcXcX.X)..X.X.X.X.XyX",
"v.R.R.)..X].].XX].&XuXuX=X=XuXxX*XvXMXNXNXmXMXMXvXvXMXHXHXGXHXFXJXHXKXKXKXKXKXUXUXJXJXGXbXNXNXvXaXmXvXvXmXmXvXmXNXcX*X&XxXcXyXxX",
")..XR.)..X!.R.].!.$X*X=XaXaX=X=XvXaXvXmXvXvXMXMXMXMXHXNXNXKXGXFXHXNXFXFXHXKXKXKXJXJXJXJXMXbXMXMXvXMXmXMXmXmXvXvXvXNXNXvXvXNXvXcX"
};
