/* XPM */
static char *grass2[] = {
/* columns rows colors chars-per-pixel */
"64 64 225 2 ",
"   c #010001",
".  c #082702",
"X  c #01221D",
"o  c #12201C",
"O  c #122B1C",
"+  c #23330D",
"@  c #283D10",
"#  c #182D3C",
"$  c #1A3932",
"%  c #18363C",
"&  c #253C3B",
"*  c #294D06",
"=  c #3D5F0C",
"-  c #1B4739",
";  c #27483C",
":  c #314E34",
">  c #29573C",
",  c #34593B",
"<  c #39602B",
"1  c #2B653B",
"2  c #3C643D",
"3  c #39683B",
"4  c #3A753C",
"5  c #466E2D",
"6  c #46673B",
"7  c #436B3C",
"8  c #44733C",
"9  c #4A743C",
"0  c #477938",
"q  c #4B7B3C",
"w  c #537A3B",
"e  c #657C33",
"r  c #112E45",
"t  c #193746",
"y  c #223B42",
"u  c #1B4847",
"i  c #1A564A",
"p  c #1B5B53",
"a  c #264946",
"s  c #2C5443",
"d  c #2C5B43",
"f  c #245548",
"g  c #2C544B",
"h  c #2C5B4B",
"j  c #335B43",
"k  c #365946",
"l  c #30524D",
"z  c #265954",
"x  c #1D644E",
"c  c #2A6649",
"v  c #336444",
"b  c #3B6444",
"n  c #3C6D44",
"m  c #33644B",
"M  c #356949",
"N  c #3B6B4B",
"B  c #2E764C",
"V  c #3C7344",
"C  c #3C734A",
"Z  c #397948",
"A  c #2B6757",
"S  c #326453",
"D  c #336C53",
"F  c #366C57",
"G  c #277555",
"H  c #387756",
"J  c #315860",
"K  c #286865",
"L  c #2C7465",
"P  c #387B63",
"I  c #436B44",
"U  c #446948",
"Y  c #447343",
"T  c #4B7446",
"R  c #447C43",
"E  c #4B7C43",
"W  c #43734B",
"Q  c #447C4B",
"!  c #4A7C4B",
"~  c #547948",
"^  c #436F57",
"/  c #50625E",
"(  c #4E7551",
")  c #447A55",
"_  c #8B3D11",
"`  c #A5480A",
"'  c #8E563A",
"]  c #DB5417",
"[  c #E96B17",
"{  c #38873E",
"}  c #5B981D",
"|  c #5A932D",
" . c #49863A",
".. c #4A843C",
"X. c #548B3C",
"o. c #58883A",
"O. c #4B9639",
"+. c #56963A",
"@. c #5C943B",
"#. c #669236",
"$. c #679739",
"%. c #649B3B",
"&. c #749C3C",
"*. c #5FA12F",
"=. c #59A43B",
"-. c #6FAF31",
";. c #69A73A",
":. c #75A93A",
">. c #79B638",
",. c #79C235",
"<. c #3C8649",
"1. c #2E8A56",
"2. c #3A8659",
"3. c #2A965E",
"4. c #388565",
"5. c #32936F",
"6. c #458343",
"7. c #4C8344",
"8. c #44834C",
"9. c #4C8948",
"0. c #538343",
"q. c #548C44",
"w. c #5A8C43",
"e. c #588448",
"r. c #538C4B",
"t. c #5B8B4B",
"y. c #4B9547",
"u. c #5B9443",
"i. c #579648",
"p. c #5B9C4C",
"a. c #478755",
"s. c #558955",
"d. c #489658",
"f. c #569855",
"g. c #648847",
"h. c #629442",
"j. c #649C43",
"k. c #6C9C43",
"l. c #68994A",
"z. c #769948",
"x. c #668954",
"c. c #659954",
"v. c #749553",
"b. c #5CA348",
"n. c #4CAC58",
"m. c #59A858",
"M. c #58B65A",
"N. c #6BA343",
"B. c #68A848",
"V. c #76A847",
"C. c #6AB648",
"Z. c #79B646",
"A. c #66A755",
"S. c #77A854",
"D. c #68B454",
"F. c #77B953",
"G. c #488E65",
"H. c #489866",
"J. c #55AE6C",
"K. c #6CB762",
"L. c #7AC347",
"P. c #70C64F",
"I. c #68C362",
"U. c #82AA34",
"Y. c #8FBD35",
"T. c #85B83A",
"R. c #E5940A",
"E. c #F58114",
"W. c #8FCC2F",
"Q. c #8AC737",
"!. c #95C938",
"~. c #99D839",
"^. c #A1CA36",
"/. c #AFD834",
"(. c #A7D838",
"). c #9AE637",
"_. c #AFEE35",
"`. c #B5E939",
"'. c #C3F938",
"]. c #D6FC39",
"[. c #839B4B",
"{. c #84A947",
"}. c #86B845",
"|. c #94BB44",
" X c #87BA54",
".X c #91B255",
"XX c #A4BD49",
"oX c #8CA863",
"OX c #DB8E72",
"+X c #D9A166",
"@X c #8AC647",
"#X c #98C946",
"$X c #97D645",
"%X c #8ED350",
"&X c #A4CB48",
"*X c #A6D946",
"=X c #B5D947",
"-X c #B0D257",
";X c #97E349",
":X c #9FEB5C",
">X c #A7E446",
",X c #B9E748",
"<X c #B5F14E",
"1X c #84CC67",
"2X c #C1D755",
"3X c #C4EC48",
"4X c #CAF747",
"5X c #D7FC49",
"6X c #D4EF54",
"7X c #E7FE54",
"8X c #C9EA64",
"9X c #F7E368",
"0X c #DE51B8",
"qX c #7D9692",
"wX c #4FBD84",
"eX c #53C783",
"rX c #E89D8F",
"tX c #D5BAA4",
"yX c #EFCE99",
"uX c #DEC3A7",
"iX c #E3D8B5",
"pX c #F3D2B7",
"aX c #EAD1CB",
"sX c #F4F1D3",
"dX c #F0F3D9",
/* pixels */
"; O., $ < k.: @.Z.N.> T.W.=.V >.!.+.0 4 1 3 Q.>.$.!.:.@.Q.3 j > 0.P.2.{ f @. .w Q.>.*.7 q  ., b V 1 9 &.&.| X.!.:.+. .- 8 b : U.",
"$ 4 w 3 5 0 q ;.u...8 +.+.O.H b.>.N 1 w h.@.u.g.X.;.4 Z s v ..n s d.G d d Z ..q :.N.&.t.;.> a I 7., : [.]./.o.;.Z.+.8 k T B.: , ",
" .+.o.w U./.U.6 8 5 6 8 V r.C 6. .d n B.0.; f u.! V 1 b ( h.4 0.X.a c 1.~ ;.h.0 Y k.%.X.j E E q.q 3 v ~ }.>.(./.#X@.h.:.x.b.M ~ ",
"=.0 < 0 /.`.#.o.>.>.w 7 d U e.m 3 j M U E S Y u.b V O.=.Z.$.I p.L.D.Z a.Q.V.w o.^.Y.o.2 I ..o.o.7 6.Y e.- s %.Y.| :.!.N.c 2.c x.",
"4 *.5 #.~.*.3 q 0 ;.;.3 v > t.W a ~ ~ y U 9 b y.M C i.3 , 0 4 s N n.2.9.;.V 2 &.z.N.#XU.9 h.z.:.T.w n 8.o.Y./.^.#.!.'.>XV.Z v o.",
",.4 #.W.=.3 8 $.>.@.j b R q.Y V a s ~.t.s h W 9.M D B h 3 X.3 H.J.5.G B h C n 9 #.:.0 Y 9 B.T.T.z.g.E t.(.`._.!.(.!.T.>X).R Y 9.",
"*., >.*.3 o.>.%.q 3 3 6 9 7 , o.}.N.+.f.b q | j ! r.6.c E z.F eXwXJ.D h z ! 8 2 q 0 n R %.$.9 , 3 w < B.L.I 4 , ).4X9 4 P.O.k m ",
"< *.-.3 ; ;.q.j.;.B. .o.o.o.~ U o.Q.>.t.l.Y.q k q.....Z $X&.2.a.; % C 8.U N k 9 ;.O.@.7.u.T 2 #.^.W.@.C 2 R ; ; +.$Xq.t H B .XoX",
"4 > > & ; q , X.u.C.6 q o.q.N.{.f ; 3 z.4X4X&.6 @.q.E $.~.V B , 2 s > & 6 B.h $.V...R R 0 V 8 *.#.9 ....;.4 h f u m.8.A l t {.7X",
"> { *.7 t.k.> :.}.N.:.Q.W.>.u.@Xo.w E - z.'./.~ %.o.#.W.-.O.%.6 s l.E T s p.a.u.Z.+.e.$.-.o.o.:.#.:.+.B.8.s a.H u j Y h y r ~ _.",
"c O.q : 8 Q.9 @.T.T.3 : , C.N.;.| e XX2Xz.U.Y.k.X.&XU.,.| j.%.@.X.;.{.e.h..X8.Z >.B.u.X.9 %.$.^.`.^.o.Y u.Y j m r.@XZ.c.e.p - ;.",
"4 4 > w {.!.>.o.#. .6 3 2 Y :.| 0 , : XX5X/.*.U.}.W.@X|..X!.$.4 ..+...E }.U.k.q.w.}.&.T 8 7.h.W.!.9 b N B s s N Z.@.% U f.r.u <.",
"1 - - ;.#XV.`.g.5 &.&.w , j |./.$.@.2 6 ^.!.k.|.=Xo.t.{.!.;.X.;.%.3 0.3X3X*X>.e.{./.XX&.3 , E >.w ~ @.M l o.w : ; & ; 3 d.H.d.z ",
"} :.Y.^.&.W :.:.{.Y.=X-XXX9 v (.W.u.X.9 .X3X!.Z.@XI :.W.W.+.V.T.| #.Z.X.#.,Xl.,.(.|.&XN.6.k.%.q.d ~ #XW U @.8 n m x.M 7.i z 4.p ",
"^.].]./.@.t.E u.&.>.^.]./.@.w.0.j.>.~ U 8 o.k.~.w.+.b h.(.}.i.W.*.V.#X].Q.8 >.Y c.l.i.>.!.u q.>.n j.T P.c.d :.X.C z.l.@.;.+.H c ",
"_./.5 | V.j.e.8 4 % - 6.0 ;.%.@.>.| 0 $.{.z.N.>.q.>.&.X.R @.:.5 w W.W.%.! W t.6.+.; 1 i.B...c e.!.~.f.a.V./.(.Z.~ }.@XQ.Q.B...4 ",
"0 : # <.p.u.I 2 ~ g.6 w.T.>.V.i.<.3 &.Y.o.l.B.8.T e.C.N.0.>.).Y.@.o.@.Q.;.s 2 V f v.0.M Z 6.B.;.7.o.i.Y e.#.>.#Xr.N.}.=. .o.#.0.",
"> 4 @.d 4  .Y k.V.#.&Xg.a o.;...1 3 ,X`.h.f 8.M X.=.b.C.+.~._._.;.# a X.;.Y x.{.- Z..XU > V.V.S.m V 6.0 O. .c ;.j.Y +.c ..0 c 7.",
"i ,.*.3 2 X.8 $.W.X._.).o.&.j.4 % ; 6...@.>.|  .. B.>.0.$.+.E X.0 w !.W.) c.6.+.a &.X.c ~.~.a.z.(.}.~ i.;.=.V p.b.r.8 N.=X|.V.d ",
"1 O.- > @X>.Q.:.>.^. .; 6.N.+.b g.I q.>.i.8.3 . . . 8.T C.B.E >.T.+.o.X.s 2 Y f v.Z 8.j.9.o.Y w.T.$Xr.7.:.%.V B.a.V Z.6X,X4X{.Y ",
"{ ; % I &.>.>.&.=X`.x ,.2 3 o.$.. v }.. . . . * @ * . . a Y 4 Z | =.2 y.C f =X=X{.g.7 d q.M i.;.Z u.j.Q h.s.&.:.y.B %X%X<X;.- > ",
"> t a ; C.X.o._.V.-.1 O., @X>.. . . . . * . . * * * * . s a ~ - % ; 3 Z Y W V 3X5X-X[.Z a Z 7.;.Y B.b.k.3 k.,X>XB.4.M.M.M.> s ; ",
"- i ; 6 C a p.O.1 2 > r . . . * . * * . * * * * * * * * . l.R $X@X~.7.H >.:.!.;XC.S ,X,X4XE k.3 ,X<X9.L.a.C l.$XP.A 4.4.L G.H.k ",
"x ..:.@.M z n q ; 1 u . . . . * * * * . . * . . . * * * . .             A A D d i.G Z.$XZ.c L.8.k.#Xb.{ q.b.a I F.G.z ! g n.S.#.",
"Z X.3 a a a T V.a Y Z . * * * * * * * * . * * * * * * * * . + + + + @ iXiXqXqXqXqX  y.d.<.H {.A.r.F P.{.A.( t.A b f.s.! ^ D.V.6 ",
"M 1 a c a.q.k :.h V.C . * * . * * = * * . * . * . * = = . . + + +   iXdXdXiXiX+ + qX    l B.p.F V.F.F.i.F ) Z.Z.l z J.G.G.( # y ",
"G - # t H B.s.l.q.Z.u B * * * * * . * * * . . * * . . . . tXE.E.dXdX0XdXdX0XdXiXE.+ + qXqX  J.a.9 Z.a W j v.=X:Xr.h G.P F A s , ",
"u C @XQ.B.a.; ( j.y.B M.. * * * * * * * . . . . . . . yXE.E.tXtXdX0XdXdXdXdX0XdXiXE.+ + qXqX  f.f g t.J.a.h 9 Z.m.z K A z ) m.U ",
"c M.A.X.C A.S U 8.e.x c . * * . * * . * * . . . uXuXuXuXtXtXE.E.dX0XdX0XdXdX0XdXiX_ E.+ + + qX  a.S m.d.f.A.i f F.f.P a.F G.A f.",
"c c Z A u S A.f.9.u.3.1.t   . * * . = . . . pXpX9XpXpXpXuXuXtX} < dX0X0XdX_ _ _ _ rXrX_ ` ` + qXt r F.c t.S a.S U F.F.f.P A ; U ",
"x =...s 2.a.m.m.m.B.1.M.D   . . . . * * pXpXpX9XR.R.R.dXpXuX+X,.tXdXdXdXrXrXrXrXrXaXaXrX_ _ E.+   ( r.&XA.d.f.D.s.r.A.H.P z J.B.",
"3.1.u t l x.4.2.H B c B m   . ` E.. . * pXpXR.R.] R.R.R.} uXE.< tX,.dX_ rXaXaXaXrXaXsXaXrXrX_ E.  e.c.:XQ % t r l.D.f.H.P F H P ",
"3.1.<.F (  XA H c d B <.s   ` uXE.E.. . pXR.R.] ] R.R.R.uX+X} } < E._ rXaXaXsXaXaXsXsXaXaXsXrX_   z.@X;.; ~ ~ N |.$XW A H A c Z ",
"1.M.M.A V. XA S v M i y.#     ,.tXE.tXE.dXR.] ] ] R.R.9XuX+X< E.E._ rXrXaXsXsXsXrXaXsXsXaXaXrX_   u.Z.8 k ~ .X( F.b d X.i.D m.m.",
"x G H S 8.2.a l > u Z 6.w   $ [ yXyX9XE.pXdXR.R.R.dXdXpX+X' yXE.yX_ rXsXrXrXrX_ rXrXrX_ sXrXaX    2XD 6X6Xv.v.g.D j q I u.C m k ",
"G <.j s c.S h 0.l.j.Z <.e.  $   E.yXyXyXuXpXdXdXR.pXpXuX' ' < < < _ rXsXrXrXrXrXrXaXrXrXsXrX  $   U x.2X9 v b z.x.z.#Xr.N.k.j , ",
"> y.d # T S.) }.S.@XY > 3X  O $   E.E.< +XuXuXpXpXpXuX+X' yXE.E.E._ rXsXrXsXrXuXsXaXaXrXOX  $ $   6 .X4 - M %.w .X5X3Xk.>.%.7.#.",
"- 6.Q o.; d.) T.B.B.X.;.R   O $ $     E.' +X+XuXuX+X+X+X' yXyXyXyXE._ _ aXaXaXrXaXaXaXrX  $ $ $   E u e.k.V.^.g.a {.4X{.t.@.$.Q.",
"Z 6.N.~ V.V.n @.}.A.0 Y L.9.g X $ $ $ $ $ $       [ [ ,.tX[ [ [ yX_ rXaX          $ / $ $ $ $   g.*X2X@Xh.U ~ 2X2Xg.>.:.x.#XT.Q.",
"Z <.0 ~ {.T.#.7.h.!.c # y.y.N   X X $ $ $ $ $ $ $                       $ $ $ / / / $ $ $ $   8.$X*X[.p.e.k U b 2X5X{.S.#X!.Y.Y.",
"R > o.3X3X&X:.g.&XXXH , a.H c   X X X $ $ $ $ $ $ $ $ / / / / / / / / / / / / / $ $ $ $ $ X   i.:.& s.a W q.@.6 [./.T.S.*X0.w U.",
"X.;.;.9 z.*Xt.$X|.$Xt B n M T ! X X X X $ $ $ $ $ $ $ $ $ $ / / / / / / $ $ $ $ $ $ $ $ X X 7.Y k w.t.m M 9.q.8 s.2X=Xk.Z.w U.^.",
"-.0 -.c b V.i.i.Q.:.y.A 9.@X;.&X  X X X $ $ $ $ $ $ $ $ $ $ $ $ $ $ $ $ $ $ $ $ $ $ X X X   b T w Y %.c.N |.&X}.g.U @X@Xr.N.:.;.",
"#.W.,.g.U W p. .X.t 5.3.u 5.5.k 4X4X  X X X X X $ $ $ $ $ $ $ $ $ $ $ $ $ $ $ $ $ X X X Z.Y S.5XV. X7.s.#X(.}.#.k.oXs.b.s.k.%.q ",
"q I 7.L.9.g b > z {.2.p A K t -.$X>.;.  X X X X $ $ $ $ $ $ $ $ $ $ $ $ $ $ $ X X X X   ,X6Xz.3Xl.@Xk ) 0.f g.>X%.T c.C T c.Z.@.",
"v # s y.y.b [.o.a #X1.a.9.K K r.K u I >XX X X X X X X X X X $ % X X $ X X X X X X X   #X].U.3 k.A.b.~.S 8.Y $X*XE M F Q u.V B.B.",
"H > y.a.H c S 8X#XN.q.; ,X3X$XN K a D.n   X X     X X X X X X X X X X X         X =.r.Z.g.$Xr.b.D u.U T i.y.:.& k h.V ! j t h u.",
"% n <.3 m T n ~ 5X,X%XC.Q.~ : K ) ) y y 4.H d.  o o o o o o o o o o o o o o o   w.Z.s.) ! E 0.8.E 8.}.E I I k w.$X$., g g ! a g.",
"- H c l Z._.5X,X{.%X3.i.i.i u p G.r s a a ) s.S   o o o o o o o o o o o     M.d.D., v 8.g p.h ! f.B.Z.u U g.U }.7 s k l W A.s.N ",
"y.A A a.@X:.:.^.;Xy.c B x r.l.Q x.s.F 1X) a N %XH                       ( G.5.2.n j.h.T j.t.g ! j.f.A.N T Z.T T I V.T l W S G.h ",
"G L F 8 J K A p > i.s.n.c %X@X%XC.c a.C.a.@XV. X) H G A N ) L L a h 2 T q.f t.b.Z I 4 X.X.z.U V.N.v q.&X,XZ.U c.}.N.Z.h.;.b z :.",
"5.3.z u 5.5.K j T.4X5X>Xq.i.B.M.f.F 1.b.A.m.S.D.) a.F.-X3X=Xa.z Y ;.Z.$.Y m m u., > Z +.}.-X~ T.L.Z a S.4XT.V. X}.p.r.}.*Xs.V.*X",
"3.x r A K # y -.$X$X>.;.C.a.d.d.B 2.s..Xc.s.p.B.F S.8X5X,Xa u C ;.Q v a l a l @X2 F j.7 }./.{.=X`.6X=Xv.3X^.N.@XB.r.9.B.*XZ.~.#X",
"1.r.z.t.K K M r.H K u U >XC.4.4.S @X>X8.F c.@XA.) I.P.%XI # t 0 A P h z ) c.S S.H a.&.b @X}.&X5X].U.3 3 z.,Xc.B.7.E C.i.w.C.>.:.",
"F.}.I T W L h h J p t L.;X) 5.P m.C.s.S ^ -X6X$Xa.wXJ.H.d V.@XD.S z u t z d.f.A.s.Z.h.z.N.B.$X`.~ 8 B.Z.B.@.r.Z B.#X}.N.E ) 6.R ",
"q.; Y.,X,X$X Xk z J f C.v r A F d.S 1Xm.H z  X%Xf.L P P K.:X:XF.c a c.%XF.f.a N A.9.) <.=.q.Z.t.g.$Xi.9.B.d.H u.N.~ @X~.Z.7.n Q ",
">.,.).$X<X>X,.s.t r y ) r y y l K A.D.4.m.H.u a.m.S ) P J.r.g A ) H.I.u.7.m.9.a s.C S.N.i.Z 7.}.<Xe.S W B.p.c ..T }.k.~ S.c.j.Z ",
"L.P.,.Q.w s a K ; ) ) y & a z P P d.z D s.m ) f a.H.^ P D t A F P 2.N F A A f.A.9.u.B.C.Z.f.F %X! Q Q 0.8.W E ! e.w.9.p.%X$X~.}.",
"n.O.-.d.i u p z H.2.t k l x.( a s.G.S ;XA.d.f.m.S 5.G.z z wXwX5.z D F.N G.a.H.M.d.D.9.M j M Q 8.g i.f.f R E f.B.w.Q b.w.E 2 8 j.",
"G G 4.A ! l.N.! 2.x.s.A f.s.1X) a F %X;XC t r t v.G.L z 5.A W z.( d.f u t ~ G.5.2.D k I k.h.Y I p.i.2.g E N.j.f.p.b.n.b o.a : b ",
"G x 1 ,.'.*X:.t.s.9.V.F.f.Q P J.A s.P.b.a ~ I g (.B.A K z ; t x.7X-X7.M J  XP F A s D 2.<.r.V.h.9 O.H x.8.S 9 p.d.p.d.Y h.y ;.Q.",
"i B M.P.O.i !.4X<X*Xl.p.,XXX! N s.B.<.b l U .X( j.d z D j 8.S r u.4X<XD.v ;XG.S c d M m D - a @...7.4 B.V.s.S.i.r.9.R ~ Z.M ;.>.",
"i <.<.{ n &X<X;X{.E 9.g }.5X&X9.q.}.XX6X6Xz.[.x.I s $.>.@X,.B.u.T >.P.C.Y n.z a k : t D c j :.>.>.;.+.e.V.l.|.#X:.i.y.d.f.H a 2 ",
"x V #., @.#XQ.Q.W.h.T , %.$X,XM z.7X9X8XU k k {.q.Z.*XQ.Q.q.4 w @X@XP.d.R R z k w :.B.t , -.;.+.$.;.Z.Q.;.;.T.(.}.N.F.Q D a.S - "
};
