/* XPM */
static char *ramen2[] = {
/* columns rows colors chars-per-pixel */
"64 64 209 2 ",
"   c #010001",
".  c #082603",
"X  c #01221C",
"o  c #12201C",
"O  c #122A1C",
"+  c #23330D",
"@  c #293D10",
"#  c #172D3C",
"$  c #1B3932",
"%  c #18373C",
"&  c #243D3B",
"*  c #732408",
"=  c #284D06",
"-  c #3C5F0C",
";  c #1B4738",
":  c #26483C",
">  c #314E34",
",  c #2A573C",
"<  c #355A3A",
"1  c #38602B",
"2  c #2B653C",
"3  c #3C653D",
"4  c #38683B",
"5  c #3A753C",
"6  c #466E2D",
"7  c #44693C",
"8  c #44733C",
"9  c #4A733C",
"0  c #477938",
"q  c #4B7B3C",
"w  c #537A3B",
"e  c #657C33",
"r  c #113044",
"t  c #193845",
"y  c #223B42",
"u  c #1B4A44",
"i  c #1B5649",
"p  c #1B5952",
"a  c #264945",
"s  c #2C5443",
"d  c #2C5A43",
"f  c #275449",
"g  c #2E514C",
"h  c #2C5C4B",
"j  c #335B43",
"k  c #355946",
"l  c #255955",
"z  c #1D644C",
"x  c #2A6649",
"c  c #336444",
"v  c #3B6444",
"b  c #3C6D44",
"n  c #366849",
"m  c #2E774B",
"M  c #3B7343",
"N  c #397947",
"B  c #3C724A",
"V  c #2B6757",
"C  c #346954",
"Z  c #287555",
"A  c #387957",
"S  c #286764",
"D  c #367B65",
"F  c #426B43",
"G  c #456A47",
"H  c #437343",
"J  c #447C43",
"K  c #4B7C44",
"L  c #47784A",
"P  c #547947",
"I  c #446F57",
"U  c #51625E",
"Y  c #457A55",
"T  c #517852",
"R  c #8B3D11",
"E  c #A4490A",
"W  c #8E563B",
"Q  c #DB5517",
"!  c #E86B16",
"~  c #38873E",
"^  c #5B981C",
"/  c #5A932D",
"(  c #49863A",
")  c #4A843D",
"_  c #588739",
"`  c #548A3C",
"'  c #4C953A",
"]  c #569739",
"[  c #5C943B",
"{  c #689A2C",
"}  c #668E3B",
"|  c #64943C",
" . c #659B3B",
".. c #689838",
"X. c #749C3C",
"o. c #5EA02F",
"O. c #59A33B",
"+. c #6BA42B",
"@. c #69A73A",
"#. c #75A93A",
"$. c #73B434",
"%. c #79B638",
"&. c #78C233",
"*. c #3B8749",
"=. c #308B56",
"-. c #398558",
";. c #2A965E",
":. c #388564",
">. c #31916D",
",. c #458343",
"<. c #4C8444",
"1. c #498749",
"2. c #538243",
"3. c #538B44",
"4. c #538B4B",
"5. c #598848",
"6. c #4B9547",
"7. c #5B9443",
"8. c #579748",
"9. c #5B9C4C",
"0. c #488855",
"q. c #558954",
"w. c #479657",
"e. c #569755",
"r. c #648847",
"t. c #629542",
"y. c #649C43",
"u. c #6C9B42",
"i. c #699949",
"p. c #769947",
"a. c #6D8E52",
"s. c #659A54",
"d. c #5AA347",
"f. c #58A856",
"g. c #54B258",
"h. c #6BA343",
"j. c #68A748",
"k. c #76A846",
"l. c #69B548",
"z. c #79B646",
"x. c #67A852",
"c. c #7AA952",
"v. c #69B655",
"b. c #78B854",
"n. c #499565",
"m. c #55AD6C",
"M. c #59C05B",
"N. c #70C64E",
"B. c #7AC348",
"V. c #82AB34",
"C. c #86B839",
"Z. c #91BD38",
"A. c #E5950A",
"S. c #F48115",
"D. c #8FCB2F",
"F. c #8AC738",
"G. c #95C837",
"H. c #99D839",
"J. c #A1C936",
"K. c #ADD732",
"L. c #A6D838",
"P. c #9AE637",
"I. c #B0EE35",
"U. c #B4E73A",
"Y. c #C3F937",
"T. c #D6FD39",
"R. c #839B4D",
"E. c #85AA47",
"W. c #86B745",
"Q. c #95BC44",
"!. c #8DB554",
"~. c #A5BD48",
"^. c #8DA863",
"/. c #DB8E72",
"(. c #D8A066",
"). c #8AC646",
"_. c #96C847",
"`. c #8FD44F",
"'. c #98D644",
"]. c #A5CB47",
"[. c #A6D846",
"{. c #B6DA46",
"}. c #B5D455",
"|. c #98E448",
" X c #A7E646",
".X c #B9E748",
"XX c #B8F04C",
"oX c #84CE6A",
"OX c #C1D654",
"+X c #C5EB47",
"@X c #C9F846",
"#X c #D9FC49",
"$X c #D4F052",
"%X c #E7FE54",
"&X c #C8E165",
"*X c #F6E368",
"=X c #DF51B8",
"-X c #7D9692",
";X c #52C783",
":X c #E89C8E",
">X c #D5BAA5",
",X c #EECE98",
"<X c #DEC3A7",
"1X c #DEC1AD",
"2X c #E3D8B4",
"3X c #F3D3B6",
"4X c #EAD1CB",
"5X c #F4F0D3",
"6X c #F0F3D8",
/* pixels */
": ' < $ 1 u.> [ z.j., C.D.O.M $.G.] 0 5 2 4 F.%.{ G.#. .F.5 d , 3.N.=.*.f ] ( 0 G.%.+.7 ) ( < n M 2 9 X.{ _ ] ).%.] ( ; 8 < > V.",
"$ 5 w 4 3 6 q #.7.( 8 [ ] ' -.d.%.b c q | [ 7.7.` h.b M s n ) 4 f w.m f d M ) w k.h. .5.j.> : G <.< > R.T.U._ @.k.[ 0 j P x., < ",
"0 ] _ w V.K.V.7 8 6 7 8 H 4.B <.' s v j.2.a s r.K M 2 c P 7.8 ) ` : x =.K u.t.q 9 y.y.` < q <.3.9 5 j P W.V.L.K.H.| | #.a.d.n T ",
"O.0 1 0 K.Y.} _ %.$.w 7 d G 5.h c < n B K x H 8.n M ' O.k.u.v 8.b.b.N 0.F.z.w _ G.Z._ 7 B q _ _ 7 J H 4.; s y.V./ k.G.h.x -.x r.",
"( ' 8 ..H.+.4 0 0 @.h.4 c , 8.I a P P & v q v 3.b B 8.4 , 0 N s n m.-.3.@.M 3 ..X.u._.V.9 t.p.V.C.w B <._ Z.K.K.} G.Y.U.h.M c ) ",
"F.5 _ D.O.4 8 ..%.] < 3 H 3.8 H a s '.5.s k N 1.n V m h 4 _ b n.m.>.Z m h B F 9 | @.9 J q h.W.C.p.r.K 5.L.I.I.Z.H.G.C. X|.q H 3.",
"^ 2 $.{ 4 _ %.@.q c 3 7 H 6 < r.W.k.O.e.G 9 ] j <.5.,.x K R.C ;X;Xn.C h l 1.H 7 0 0 b L  .| 9 , 4 w 1 x.B.F 5 < P.@XH 8 N.6.k n ",
"1 +.$.4 : @.<.y.@.h.( _ _ ( P G w F.%.4.i.Z.q < 3.,.` m [. .*.0.: % b -.G G s 9 @.] [ ` 3.K 2 ..J.D.[ M 3 H , :  .`.<.% Y m !.^.",
"5 , : : : q , [ 7.l.3 w ` 3.y.z.s : 4 p.+X@XX.8 ] 3.q ..L.N m , 4 s < ; 7 j.k ..k.) L J J H 8 { } K ( <.@.H h f ; f.0.l g u E.%X",
"2 ~ o.7 5. ., #.z.k.#.Z.D.F.` _._ 9 K ; p.Y.L.P [ _ ..G.$.' | 7 g i.K P a 9.0.7.z.] 5. .+._ _ #.} @./ j.1.> -.A f h L h y r K U.",
"x ' ( > 8 F.K } C.C.4 > < l.h. .{ e ~.OXp.V.Z.X.` ].C.%./ y. .[ ` @.c.2.t.!.1.J %.y.7.` 9 @...J.U.J._ H 8.M j n 4.).z.s.` l ; @.",
"5 5 > w E._.#._ ..( 6 3 2 H #.{ 0 , < ~.#XK.+.k.V.H.).Q.E.G. .0 ( / ) K W.V.i.3.7.W.X.H H K 7.D.D.w j B B s s v z.` % F e.0.a *.",
"2 ; ; @.Q.z.{.t.6 } ..w < s Q.K...[ 3 F J.H.h.W.{.3.5.E.G.@.` @.y.7 5.+X+XL.%.2.E.K.~.X.4 < P %.w P [ c k _ 9 < ; : : 4 w.n.-.V ",
"^ #.Z.J.#.Y #.#.C.Q.{.OX~.w n L.D.] ` 9 !.+XG.k.).G #.D.F./ k.V.[ / k.3.| .Xi.&.L.Q.].h.,.u.@.3.j P _.Y G [ 8 b k a.n <.i l >.l ",
"J.T.T.K.[ 5.2.7.u.V.w B H _ 3.X.L.` 7.5.v ..L.W.8. .G.{ l.].Y.T.G.8 $.8 h s.x.6.z.G.G u <.$.b 5.t.K B.s.j ` #.) B h.y.7.h.] m j ",
"I.K.6 / X.y.5.H 5 % : ,.) @. .[ %./ ( . . . @.z.2.z.+.` K 3.+.0 w D.D. .L L s.J [ : 4 3.j.` h 5.H.H.w.0.k.L.L.W.P !._.F.F.j.0 M ",
"( : # ,.d.] H v P a.7 5.C.%.k.8.*.3 . . . . . 1.K 5.x.l.K $.P.C.| _ _ '.@.s 4 M f a.3.n N ,.j.h.K _ ] H r.[ V.'.4.h.W.O.( _ [ _ ",
", 5 [ d b ( 5 p.k.| J.a.: _ @.. . . . . - . . . ` y.d.@.7.H.I.I.@.r & ' @.F a.c.; E.!.G d k.E.x.C b ,.J ' ) 2 h.9.8 ] x ,.q n <.",
"i &.o.4 3 ` 9 ... . v W.. . . . . . = = = = = . . a a b ~ M w [ O.4 3.3.,.L f {.{.E.k._.r.7 c x.4.n L 6.@.O.N 7.9.4.5 k..XQ.k.f ",
"2 ' ; , ).$.. . . . . . . = = = . . = = = = = = . . s a P : t # , b N q M F L F +X#Xa.j.].R.N A a M J <.@.@.b j.4.M c.@X.X+XE.8 ",
"~ : % F . . . . . = = . = = . = . = = = = . = - . . . H j.k.h x ; j A : 5. XT.XXQ.F.P.x.9.%XE.$ r.Q.< H y.q...#.6.A `.`.XX@.% 2 ",
", % a . . . . = = . = = . = = = = = = = = . = = = . . s.H '.` F.H.J A C v.%.#.G.|.l.f.v.V .X.XK @X9 M y.5 p.XX.X9.:.M.g.g.s , : ",
"u . . . . . = = . = = = . . = . = . . . . = = = = = . .                   V V m s 9.i.e.Z l.|.B.B.d 5 B.1.B r.`.N.V :.:.S 0.n.j ",
"z . . . = = = . . = . = = . . = = = . = . = = = = = . . -X-X-X-X-X-X-X-X-X          #XI.%.,.l.v.f.I A *.3.9.a H b.0.l L x m.c.} ",
"N . . = = = = = . = = = = = = . = = = = = = = = = = = . + + + + + + 2X2X2X2X-X-X-X-X      8.*.w.0.A q.E.s.T 5.V C e.q.L I v.p.7 ",
"m . . = = . = = = = - = = = = . = . = = . = = - - = . . + + + + 2X2X6X6X6X6X2X2X+ + -X-X-X    n.h x. X7.C 0.c.b.g l m.n.q.Y t y ",
"x ; . = = = - = = = = . . . = = . . = = = = = . - . . . * * E 6X6X6X=X=X=X=X6X6X2XE + + + -X-X    v.r.B c a. X X9.h 0.D C V < s ",
"u M . = = = = = . = . = = = = = . . = = = . . . . . . >XS.S.&.6X6X=X6X6X6X6X=X6X2XS.E E + + -X-X-X    m.0.h F z.f.l S S l Y f.G ",
"Z g.f.. = = = = . = = = = = = . . . . = . . . . ,X,XS.S.>X>X6X6X=X6X6X=X6X6X6X=X6X2XS.^ S.+ + + -X-X-X  e.x.i f b.n.D 0.C n.C q.",
"x x B . = = = . = = = . = = = = . . . . <X1X1X<X<X>X>X>XS.S.6X6X=X6X=X6X=X6X6X=X6X2XR R R S.+ + + + + -X  C 0.n G B.c.n.D S : G ",
"z O.<.f . = = . = = = = = = = = . . 3X3X3X3X3X3X1X<X<XS.>X^ 6X6X=X6X6X6X=X6X6X=X6XR R :XR R E + + + + + -X  q.v.q.4.x.f.D l m.j.",
";.=.u &   . = = . = . - . . = . . 3X3X3X*X3X3X3X3X3X<X<X>X^ 6X1 6X=X=X=X6X6XR R R R :X:X:X:XR ,XE E + + -X  t r t.b.e.n.D C A :.",
";.=.N C   &.. . = = . = = = . . 3X3X3X*XA.A.A.3X3X3X3X<X^ ^ (.6X6X6X6X6XR R :X:X:X:X:X:X4X:X:XR ,XS.S.+ + -X  c ).'.b V -.C x N ",
"=.g.M.V   . . . . . . = = . . 3X3X3X*XA.A.A.A.A.6X3X3X<X(.&.1 >X6X6X6XR :X:X:X:X:X:X4X5X4X4X:X:XR R R S.+ +   T z.v d 7.4.C f.f.",
"z Z A C   . E E E S.. . = . 3X3X3XA.A.A.Q A.A.A.A.6X^ <XS.1 ^ >X&.6XR :X:X:X4X4X4X:X4X4X4X5X4X:X:X:X:XR ! @   5.C d q F 4.N c k ",
"Z *.d s   E E >XS.S.S.. . <X3X3XA.A.Q Q Q Q A.A.A.6X<X(.^ ^ 1 1 S.R :X:X:X4X4X5X4X4X:X4X5X5X4X4X4X5X:X:XR E   p.a.p._.1.h.u.s 3 ",
", 6., #     E &.S.>XS.>XS.<X3X6XA.Q Q Q Q Q A.A.*X<X<X(.1 S.&.S.R :X:X5X4X4X5X5X5X:X4X4X4X5X6X5X4X4X:X:XR     _ !.%X+Xi.%.t.2.} ",
"; *.T _     E S.>X^ *XS.<X<X3X6XA.A.Q Q Q A.A.6X3X<X1 W >X>X1 S.R :X^ 4X4XR R R 5XR R R R R 4X4X4X:X:X4XR     t.a E.@XE.8.} ..D.",
"M ,.h.P   $   S.S.,X,X*XS.S.<X3X6XA.A.A.A.A.6X6X3X<X(.W ,XS.&.,XR :X6X4XR :X:X:XR :X:X:X:X:XR 4X5X:X4X4X  $   OXOXr.%.#.t.].C.D.",
"N *.0 2.  $ $   S.S.,X,X,XS.(.<X3X6X6XA.A.3X3X3X<X(.W W 1 1 >X1 R :X5XR :X:X:X:X:X:X4X4X4X:X:XR 5X:X4X  $ $   k OX#Xk.c._.).G.V.",
"J , 5.+X  O $ $     S.S.1 ,XW (.<X<X3X3X3X3X3X<X(.(.W ,XS.S.^ S.R :X5XR :X:X5X:X1X5X4X4X4X4X:XR /.    $ $ $   7 R.K.%.c.[.` w V.",
"` @.+.9   O $ $ $ $     S.,XS.W (.(.<X<X<X<X(.(.(.W W ,X,X,X,X,X! R R :X:X4X4X4X:X4X5X4X4X4X:X    $ $ $ $ $   ,.q.OX.Xi.b.w V.J.",
"$.5 @.n G   X $ $ $ $ $     S.S.W (.(.(.(.(.(.(.W W S.,XS.S.! ! R R :X:X1X5X4X4X:X4X5X5X4X    $ $ $ $ $ $   ].E.r.B `.Q.1.k.#.@.",
"{ D.&.r.7   X X $ $ $ $ $ $       W W W W W W W W 0.S.,X,X,X! ! R :X:X4X5X5X5X4X:X4X      $ $ $ $ $ $ $ $   %...p.R.q.9.5.i.| q ",
"q 9 J B.<.g   X X $ $ $ $ $ $ $ $           ! ! &.S.>X! ! ! ,X,XR :X4X4X4X          $ $ $ U $ $ $ $ $ $   f 5.{. .L s.M L s.z.} ",
"x # a 6.6.n c.  X X X $ $ $ $ $ $ $ $ $ $ $                               : $ $ U U U U U $ $ $ $ $ $   1.L '.[.2.n C Y 7.B d.j.",
"N j d.0.A h g   X X X X $ $ $ $ $ $ $ $ $ $ $ $ U U U U U U U U U U U U U U U U U $ $ $ $ $ $ $ $ X X   8.6.#.& k 7.b L c t j 8.",
"; n N b x P G T   X X X X $ $ $ $ $ $ $ $ $ $ $ $ $ $ $ U U U U U U U U U $ $ $ $ $ $ $ $ $ $ $ X X   <.F G k 5.H.| 3 s g L a r.",
"t A x a ). X#X{.E.  X X X X $ $ $ $ $ $ $ $ $ $ $ $ $ $ $ $ $ $ $ $ $ $ $ $ $ $ $ $ $ $ $ $ $ X X   W.f G r.F W.v < < g Y x.0.G ",
"6.V V 4.).k.#.H.'.  X X X X X $ $ $ $ $ $ $ $ $ $ $ $ $ $ $ $ $ $ $ $ $ $ $ $ $ $ $ $ $ $ X X X X   W.C P z.q H G k.P g G C n.h ",
"Z Z V J g S V p , 7.  X X X X X X $ $ $ $ $ $ $ $ $ $ $ $ $ $ $ $ $ $ $ $ $ $ $ $ $ $ $ X X X X   n 5._.}.z.G x.W.x.k.u.h.v l k.",
">.;.l a >.>.S j F.+X@X  X X X X X X X $ $ $ $ $ $ $ $ $ $ $ $ $ $ $ $ $ $ $ $ $ $ $ X X X X X   B.B a c.#X%.c.!.z.d.4.W.{.0.p.L.",
";.z r l S y y $.|.).F.@.  X X X X X X X $ $ $ $ $ $ $ $ $ $ $ $ $ $ $ $ $ $ $ $ X X X X X X   {.U.$X}.p.U.L.y.).x.1.<.h. Xz.H.'.",
";.q.p.4.S S c 3.A S u G  X  X X X X X X X X X X X X X X $ $ $ X X $ X X X X X X X X X X X   ].#XT.V.7 4 p.{.s.d.2.P l.9.3.j.$.#.",
"b.W.F 9 G S h l l l t z.`.0.  X X X X X X X X X X X X X X X X X X X X X X X X X X X X X   x.'.U.P 0 j.l.j.t.q.,.j._.W.O.K 0.1.L ",
"3.a Z..XXX[.b.G l S a N.2 r V   X X         X X X X X X X X X X X X X X X         X X   O.4.z.3.r.'.8.4.j.w.B 8.h.2.).H.z.,.b L ",
"$.$.P.'.XX X).q.t r a Y # y y g     o o o o                               o O O O     k.8.N T W.XX4.V G l.9.x <.P W.u.5.h.s.y.L ",
"N.&.F.F.w , a S y T Y y & y l :.D w.    o o o o o o o o o o o o o o o o o o o o   5.j.l.z.e.A `.L L 1.2.J G K ,.2.5.1.9.`.`.'.W.",
"g.6.$.w.i u p l n.:.r g a a.T a Y n.V |.    o o o o o o o o o o o o o o o     g.w.l.<.C d n ,.L f 8.e.f Y q q.x.3.A l.2.<.4 0 t.",
"Z Z >.z K s.i.<.-.a.q.C e.0.oXY a I `.|.Y %                               T n.>.A A v F u.t.H b 9.8.-.h K h.y.e.9.j.f.j K a > 3 ",
"Z z d &.Y.[.k.4.q.<.k.b.s.N D m.C q.N.d.a T G g H.x.V l l : t a.%X.X2.n l !.D A x f B -.A 8.k.y.H 6.N r.<.C 9 9.w.9.w.H | a @.C.",
"p m g.N.' ; G.@XXX[.s.9..X~.T A 0.c.*.v g G !.T u.d V C x L h r 7.XXXXv.v |.Y C c s C h n ; a 3.) ` b x.h.q.c.8.4.6.J P z.n @.%.",
"i *.*.~ B ].XX'.z.P 1.h W.#X].<.q.E.~.$X$Xp.R.r.G s ..%.).&.j.[ H z.N.v.b g.l g < s t x x d #.%.%.#.] 3.k.s.Q._.k.7.6.w.e.A s < ",
"z b ..< [ H.).F.F.| 9 k  .'..Xc p.%X%X&XG k k E.3.z.L.).F.3.5 w )._.N.w.J L l k w k.j.a , $. .[ { @.z.F.@.@.Z.H.W.h.z.Y V 0.n : "
};
