/* XPM */
static char *wall_64x64[] = {
/* columns rows colors chars-per-pixel */
"64 64 215 2 ",
"   c #0C0A0B",
".  c #120E0C",
"X  c #0B0B14",
"o  c #100E12",
"O  c #151214",
"+  c #1A1514",
"@  c #1D1816",
"#  c #1D1A1C",
"$  c #17151A",
"%  c #16100F",
"&  c #221E1C",
"*  c #211B16",
"=  c #25211E",
"-  c #2A231E",
";  c #1C1C23",
":  c #1C1D2B",
">  c #151829",
",  c #1A1F32",
"<  c #221E21",
"1  c #211F2A",
"2  c #1F212C",
"3  c #1F2233",
"4  c #252223",
"5  c #2A2523",
"6  c #2C2925",
"7  c #24242B",
"8  c #29262A",
"9  c #2D2A2C",
"0  c #322B26",
"q  c #322D2B",
"w  c #362B25",
"e  c #36302D",
"r  c #3B332D",
"t  c #393127",
"y  c #242632",
"u  c #262935",
"i  c #2C2C33",
"p  c #2B2D3B",
"a  c #262C3D",
"s  c #312F32",
"d  c #2E313C",
"f  c #2F3034",
"g  c #343234",
"h  c #3A3633",
"j  c #3E3935",
"k  c #34343B",
"l  c #393639",
"z  c #3C3A3C",
"x  c #36383B",
"c  c #423B35",
"v  c #423E3A",
"b  c #45413D",
"n  c #4A443D",
"m  c #4C483F",
"M  c #52493E",
"N  c #292F41",
"B  c #272E42",
"V  c #2C3245",
"C  c #313543",
"Z  c #363944",
"A  c #3C3C43",
"S  c #343949",
"D  c #3C3F4A",
"F  c #333748",
"G  c #413F41",
"H  c #3E414B",
"J  c #3C4252",
"K  c #444343",
"L  c #4A4642",
"P  c #4D4944",
"I  c #43444C",
"U  c #4C4A4B",
"Y  c #47484B",
"T  c #534D45",
"R  c #524E4A",
"E  c #584F44",
"W  c #55514C",
"Q  c #5A544C",
"!  c #5B5349",
"~  c #434652",
"^  c #454953",
"/  c #4C4C52",
"(  c #494D59",
")  c #514F50",
"_  c #4E535C",
"`  c #4F5053",
"'  c #545353",
"]  c #5A5653",
"[  c #5D5954",
"{  c #54555B",
"}  c #56585E",
"|  c #5C5B5B",
" . c #59575A",
".. c #61594E",
"X. c #62574D",
"o. c #635C54",
"O. c #625E5A",
"+. c #695F51",
"@. c #696155",
"#. c #65625D",
"$. c #6A655C",
"%. c #6F685C",
"&. c #676057",
"*. c #726A5E",
"=. c #71675B",
"-. c #5D5E63",
";. c #545963",
":. c #605F60",
">. c #5E6064",
",. c #5E636A",
"<. c #636364",
"1. c #6A6662",
"2. c #6D6964",
"3. c #64666A",
"4. c #66696C",
"5. c #6B6C6C",
"6. c #726C64",
"7. c #726E6A",
"8. c #786E66",
"9. c #767166",
"0. c #7A7265",
"q. c #75716C",
"w. c #7B756B",
"e. c #7E796E",
"r. c #6C6E71",
"t. c #676D75",
"y. c #6E7072",
"u. c #6E747B",
"i. c #747473",
"p. c #7A7672",
"a. c #7C7A74",
"s. c #747679",
"d. c #76797A",
"f. c #7B7C7B",
"g. c #767977",
"h. c #827A6D",
"j. c #867B6C",
"k. c #837D73",
"l. c #817E7A",
"z. c #887F73",
"x. c #7E807F",
"c. c #868076",
"v. c #8A8276",
"b. c #85827B",
"n. c #8B857B",
"m. c #8E897E",
"M. c #928A7D",
"N. c #93897A",
"B. c #9C917D",
"V. c #7B7E80",
"C. c #7E8182",
"Z. c #838482",
"A. c #8A8781",
"S. c #8C8A83",
"D. c #8C8D8A",
"F. c #868888",
"G. c #938D82",
"H. c #918E88",
"J. c #998F81",
"K. c #969185",
"L. c #9B9385",
"P. c #94928B",
"I. c #9B958A",
"U. c #9D998D",
"Y. c #949592",
"T. c #9D9B93",
"R. c #9D9D9A",
"E. c #8F908F",
"W. c #A39B8D",
"Q. c #A49A89",
"!. c #A49E92",
"~. c #A19F99",
"^. c #A6A193",
"/. c #ABA394",
"(. c #A4A39B",
"). c #ABA59A",
"_. c #AEA99D",
"`. c #B3AC9C",
"'. c #B2A896",
"]. c #B7B09F",
"[. c #ADABA3",
"{. c #A6A7A2",
"}. c #B2AEA2",
"|. c #B5B2A5",
" X c #BBB4A3",
".X c #B5B4AB",
"XX c #BBB6AA",
"oX c #BDB9AC",
"OX c #BFB8A6",
"+X c #BCBBB2",
"@X c #B9BAB4",
"#X c #C3BDAD",
"$X c #C2B9A5",
"%X c #C2BEB2",
"&X c #BFC1B8",
"*X c #C8C1AE",
"=X c #C4C1B4",
"-X c #CAC4B4",
";X c #CDC9BC",
":X c #C7C5B9",
">X c #D1C9B6",
",X c #D2CDBC",
"<X c #D1C7B2",
"1X c #D9D2BE",
"2X c #CCCCC1",
"3X c #D3CEC0",
"4X c #D6D1C3",
"5X c #DCDACC",
"6X c #D9D5C7",
"7X c #DDDDD3",
"8X c #E1DDCD",
"9X c #E1DED2",
"0X c #E7E4D6",
"qX c #E4E0CB",
"wX c #F2EEE0",
/* pixels */
"_ -.3.4.y.i.,.C.x.U.x.. G ' w.].! s 8.k.z.z.Q.#X X$X/.5 G 7.| v 3.p.z.q y ;.:.l.).E & | (.a.q.K.b 3 V <.j.Q. X<X<XX.> ~ :.{ 3.} ",
"^ ;.3.4.4.r.L ' [ &XK.+ g m m $.W R 8.8.h.I.G.J.}.#X<Xv < q < & s T O.& y /  .{ ).%.7 ' T.T.b.I.0.2 B  .+.=.Q.#X<XE > ~ :.;.-.} ",
"~ { ,.,.,.5.:.5.>.[.^.9 Y O.w.$.< 2.w.8.p.n.G.h.8.J.$X=.v.'.T T +.$X8Xn.$ < 1 & b M 2 g Y $.&.9.T 7 V #.h.=.=.B.$XX.> ~ 4.-.-.-.",
"_ _ >.4.4.5.-.4.} E.x.9 O.6.z.!.v v 1.2.8.2.8.z.k.N.`.T #.v.o.$.| 7.!.%XR 6 +.*.B.L.*.0 5 &.q.c.t : F | 8.z.v.*.j.P : C ;.-.{ -.",
"I I ` ` z f ` >.^ f.A.g | W $.m.R R R v h P W %.8.k.B.m [ 9.Q ] 7.#.X.G.M.R K.W.I.L.'.w.L W. X*XI.7 F P ] 6.j.z.Q.o.y y 1 G 8 A ",
"  $ $ < #   # 8 7 { X.O y 1 < v @ q 5 & < 0 - - 5 & r 5 R 2...$ ] 2.W c & & K P W Q o.c h @.w.M.+.o 7 & 5 5 M E =.n > ; X < . X ",
"#.2.2.6.6.7.&.h + * r v o.+.v h H.z.z.n h h.Q.'.'.&.2.Q . * Q o.5 5 X.N.0.*.o.r @ P o.j = m Q P a.5.o.P q T | 1.L * r T O.7.:.7.",
"4XqX0X6X8XwX0XqXh.w E :.!.4X>Xz.).$X4Xn.X.!.).).OX;X,X#XX.6.K.=XQ.0.v.I.!.).>XB.5 {.=X+X|.@X;X|.0X0X5X5X1.{.0X%X5X6.#.;X$XXX@X5X",
"l.A.}.XX[.{.}.3XW.Q.=.d ( H.}.Q.n.Q.W.o.#.Q.G.G.B.M./.'...2.6.m./.Q.n.w.0.w.K.`.g _ _.Y.Y.i.$.m.R.R.R.[.w.4.[.+X6Xl.g 7.w.l.S.Y.",
"Z.a.k.l.h.h.h.A.h.J.J.i G :.o.1.n.I.h.n ] a.I.W.W.^.N.j.K ' <.v.B.W.!.Q.n.M.n.M.t k 5.<.i.[ = x.i.i.s.A.b.-.u.F..X1.8 2.1.q.a.l.",
"i.l.A.l.l.z.8.z.z.G.J.g G 1.h.5.8.v 2.h.o.O.:.K.v.*.c h.8.) 5.v.M.n.n.J.K.v.N.=.< J d.g.D.!.U -.V.a.x.D.b.g.d.a.%Xw.< <.i.i.a.l.",
"<.g.p.z.A.l.p.l.z.z.h.s c E 1.6.a.j c R j v j 5 Q v.L.M.h U <.z.n.k.z.w.v.*.=.@.7 S 5.i.4.D.P.2.3.d.d.l.w.d.A.g.H.1.; O.q.q.a.a.",
"<.<.p.b.H.J.p.h.n.h.G # G G Q O.#.U.n.8.6.P - b M.I.I.6X%.& b j n R h - *.0.o.n : D 4.5.t.4.<.Z.f.r.s.V.<.R -.D.+X$.1 :.5.4.5.7.",
"7.4.5.q.7.k.p.p.Y.}.Q.G -.8.k.N.U._.#X'.^.W.r K I.U.n.B.T c 2.w.N.I...+ O. X<XN.; F <.4.i.>.,.>.r.q.5.s.5.o.' F.oXn.< O.q.i.r.7.",
"4.y.' :.5.$.Z.l.l.}.J.G  .O.:.1.8.#.b./.`.M.e.Q Y m.K.M.o.#.n.G.M.K.0.h G a.$X/.k N >.5.q.>.5.<.3.5.t.s.g.i.t.4.[.w.< _ 7.i.7.r.",
">.4.1.e e G 2.2.:.Z.J.s  .] G [ 6.*.R &.h.*.[ | #.a.e.*Xk.' k.w.0.e.c.q x | Q.`.z : ^ 4. .P } 4.<.3.3.) U <.<.-.R.7.O x A U ^  .",
"7 7 z 0 q 4 6 8 8 L $.k v h G ) 8.8.=.o.T X.1.o.1.w.[ 6.@.U k.c.c.c.e.e k K %.B.g a u i g U g ' G z j 9 5 ' K A a.$.: C 4 ; 2 7 ",
"O + # % . + # 7 5 6 0 + & @ < 7 0 h v L c ! G l 7 t n r e x K W W Q t & i 8 4 n = # 4 O   4 5 . @ & 0 4 @ & ; # q 0 $ O # #   o ",
"K.m E I.I.n.T & 5.k.n.G.z.Z.S.S.O.e h.w.z.2.E T h c.M.K.W.T m c.c.= o.n.K.L.L.L.L.I.W.e.v m.!.] 9.}.).!.!.~.!.!.^.6.E k.K.I.!.0.",
"5X).Q  X1X,X'.6 3.P.D.P.T.Y.R.XXI.v k.2.a.7.o.z.L m.I.K./.0.$.n.OXq.w.W.|.#XOX X'.).`.!.X.!.).L.| [.oXOXI.!.[.XX;XM.z !.}.OX4X`.",
"n.G.!.N./.=X$XK I d.i.g.C.V.s.P.b.9.G.S.A.!.R n.U U ] c.6.W b.m.W.e.' 2.a.`.^.G.n.n./.n.R l.S.n.K 5.5.k.8.7.7.7.b.z.i U #.$.k.L.",
":.I.}.!.M.#X1X1.V i.y.r.f.D.d.T.b.U l.i.p.b.W W g U 5 6 j ] n.b.^.c.L 4.[ a.`.K.M.L.Q.I.U q.g.k.q ' 7.0.[ O.p.a.l.Q.c h v c N./.",
"z.S.G.L.M._. Xq 7 ' #.:.U U U 5.Q U b.q.p.A.] T &.#.6.c.m x 1.2.e.n.b K K H K._.K.K.B.L.j W q.o.1 2.b.l.l.q.' 0.p.J.v =.`.O.G.J.",
"h.z.S.z.z.z.`.v u <.C.V.S.P :.b.%.6 [ W h v v O.K.P.I.(.U.6 [ $.9.n.L $.W &.' K.^.M.k.%.m S.D.!.] ] a.7.i.k.7.W O.h w g O.2.z.N.",
"h.k.k.k.j.w.L.W ~ ` 3.r.Z.<.<.f.n.# 6.n.m.I.w.U a.k.q.q.6.[ S.M.M.^.e.c.$.] O.$.q.c.`.! b D.b.^.k.:.k.a.p.l.l.8.z.l.v 1.X.v z.N.",
"L w.G.N.z.w.Q.O.~ -.:.r.i.| ;.f.L.Q G.G.^. XB.U 5.w.w.w.$.Y | 9.9.2.6.%.c.w.2.&.$.$.K.v.z q.a.D.h.2.a.7.p.w.p.h.l.z. .z.Q.G R o.",
"8 * G +.T P Q w s ~ ( { } v I :.2.U m.v.G.W.j.e A U | [ b U :.[ | 2.! b [ $.[ m &.] $.Q H 4.<.q.2.O.k.7.w.i.8.5.i.1.9 L E c 9 s ",
"G c + < c h o.T r & & < q h j Y b g 7.m.I.L.^.c h w.6.%.t 6 g z b b r R b b n L ! P W 0 # Y W U ] K 1.v G R G G Y W L T W v < c ",
"%X%Xj l..X-X$X5X4X}.E L U.XX%X%X_.K U { b.)./.W U A.|.-X$.O.|._..X[.oXoX@X(.(.=X:X.X:X=Xv U A.H.!.!.I.z.~.!.o.R k.~.#X#X;X$XG H.",
"F.#XK C 4.#XXX2X6X3Xm.y t.E.F.H.).k.i #.' b.%.5 Z Y c.oX2.d C.R.R.{.Y.F.D.x.5.F.F.P..X2X#.A  .A.Z.H.G.P.!.{.G.Z r.7.s.C.Y.}.G _ ",
"V.~.G S ) m.%X#X`.{.8.p u.l.s.F.R.U.6 i j j S.a.g i z P Y C S t.,.d.x.x.C.Z.y.x.d.s.F.oX0.A } 7.S.S.2.a.F.H.8.k 5.p.i.V.D.I.C ( ",
"t.[.Y F -.8.L.K.6.[.!.* A :.-.| #.o.W 0.g ' oX*X^.Q Q ..7 ~ J 4.y.y.x.x.C.x.g.y.s.s.D./.c Y 5.:.p.l.:.p.p.A.h.p :.5.r.s.Y.).G _ ",
",.S.P B 3.G.h.a.].W.@.5 j & W [ 2.6.L $.] O.g.OX}.OX<X1XK d J ;.g.t.x.x.x.x.g.r.<.y.1.9.c [ x.$.G b U 2.O.O.Q j :.7.q.4.5.z.l ~ ",
"s.k.4 B ) 0.k.G.K.-X0.P }.$.D.R.{.oXh.0 '  .W S.).L.W.'.E x H ` 5.g.i.5.5.5.-.` 4.4.x.].@.x $.2.L 7.n.9.l.n.%.h x U K O.k.2.4 D ",
"V.E.s N ( 0.n.n.n.*Xc.H H.o.y.b.D.I.G.U O.1.7.2.c.c.e.Q.Q H ^ ,.u.4.:.) ' ' <.-.4.>.p.].6.4.a.A._.7.b.S.A.!.n.P q.i.l.l.Y.U.k Z ",
"3.Z.j p / K.S.n.n.].6.i g.b | <.] 1.&.G )  .7.w.2.%.9.v.K H ( { ` )  .<.i.1.x.5.} 2.>.^.Q ' a.1.c.q.1.p.b.G.w.g -.q.r.5.7.l.l I ",
",.a.z d ' S.G.M.n._.Q.= [ $.2.b ] 7.R v z Y I 2.$.T T E = 4 g 9 x x H G Y K Y j f ^ ^ n.m f 2.:.7.O.P K U o.$.b.c.Y -.a.i.k.D ` ",
"Y j 6 J <.v.v.n.n.].'.h 3.C.E.Y.H.[.G.0 h b v h 0 o.E E 9.Q m n O j b & v W P - 6 b x e Q b b P P b 6 = k x.)._.).o.k ) O.r > k ",
"&.! 4 H U w.c.n.m.].Q.x ,.5.i.g.l.T.I.U G./.!.U.e L.W.=X5X0X9X_.x.m [ Q `._.}.9.i.(.R.[.|._.(.[.:X6Xc.7 Z 5.S.n.n.z.c R 8.+.M o.",
"*X;XP 2 / 0.e.k.m.'.W.f >.y.d.2.i.H.l.g { S.n.I.b f <.&X2X5X:X;XqXv.. H x.x.Y.7.a.f.,.E.T.T.D.Z.x.[.x.7 Z | m.n.S.&.L H..X%XQ.>X",
"a.^.Q g { &.$.a.n.).c.4 A '  .m W k.&.8 ^ 1.q.q.[ I F 4.K.K._.*X*X&XM z g.y.q.O.y.D.y.>.x.x.A.S.b.S.&.< A y 1.I.U.w.l D q.G.R 0.",
"] @.j Y #.$.&.w.h.B.0.+ b b g b P P L ) K b #.T 4 J { { n.w.I.L.B.].m.6 )  .[ <.g.f.S.U _ s.4.2.a.1.r A f.t.q.a.I.G.9 i g o.c P ",
"!. Xq.f { 0.o.9.n.N.0.f E..XR.@X4X!.A.;X;X&X4XK.8 S | ) q.e.a.W.U.K.@.z q.W y.x.2.5.p.9.b z y.n.S.G.6.y ^ Z.p.7.p.w.q n =.'.Q.L.",
"y.b.2.8 I R v 1.v.^./.f _ C.V.C.(.G.Y.F.{.;X5X_.f V x H [ 9.$.h.0...r Y x.S.) g.5.g.d.I.v.x x.T.P.T.#.y D U -.7.q.p.R G.l.w.z.8.",
"} l.0.9 R O.o.W w.M.v.k ( u.x.5.T x.E.x.t.R.&XP.7 a a a h %.9.0.0.M o.U ,.x.) <.<.y.i.q.1.C } r.g.D.n.C ^  .) ) 1.O.l q.p.8.h.O.",
"x O.m $ l v c 9 m *...5 H H x -.i.i.F.x.x.D.U.m.6 u V g 7 x Q j +.b %.f H K 5 8 x x G m 5 ; f f g z h ; k h h s G v O v R ] ] q ",
"r b 8.| v h ] o.= 0 t f 4.#.x t.y.4.x.x.y.D.(.^.6 O 7 = 5 # * t b t +.e.%.E 0 e 9 m 9.n.I.c.9 h *.e.9.[ 0 * < h X.O.8.+.! v n X.",
"h.i._.!.'.!.~.}.g.m...x ;.D.-.t.d.y.4.F.x.x.~._.P 9.c.K.`.Q @.U././.B.m.`.c.%.*X`.).-X6XqX0XM.*X0X,X,X4X6X!.E w.`.).[.4X!.A.|.;X",
"&.| K.G.m.K.U.c.g._.M.u J 4.1.4.g.i.y.x.R.x.b.].T o.x.%.e.b #.c.k.I.I.n.G.$.#.#X#XW.h.K.].|.0.W.].].`.`.].>Xn K 5.p.w.b.R 1.x.n.",
"2.' n.S.a.9.Q b #.P.b.A ( <.[ t.i.i.y.g.D.;XK.W.m W x.0.0.m ] $.1.6.v.$.8.m 3 <.W./.K.v.K.9.&.b.L.K.I. X Xn...R 1.6.i.b.&.f.K.P.",
"9.$.S.D.U.U.h.b ' $.K z } 4.' >.4.4.i.5.,.{.-Xx.h e.<X,X6XM.5 b L v m E t 5 F ^ M.M.K.n.W h.K.n.k.v.v.m.[.`.K.W ' #.<.w.T <.S.S.",
"R z q.&.] e.e.a.(.).K.g { 4.<.<.,.5.y.y.,.F.-XK.4 x x._.-X`.*.- o.e.!.,X'.h S H 1.z.6.8.m.M.K.U.k.c.Q P _.W.`.$X6.c P 1.#.U P T ",
"G.#.P 7.1.6.P i.H.!.I.9 ^ >.3.5.3.g.y.y.4.g.U.^.x G ] $.I. X^.j n./.W.). XT 7 A R 2.w.k.G.c.a.M.n.v.Q o.G.M.L.'.N.n 7.l.H.(.b 2.",
"T.(.[ Z.[.|.9.5.H.K.G.9 7 -.3.r.[ <.x.5.5.2.6.$.7 x ' Q %.*...9 ] n.^.`.!.m ; g #.v.k.a.k.c.$.S.c.e.k.Q w.J.Q./.h.h | g.p.I.$.i.",
"Y g.q.y.D.(.6.z 7.k.w.s I O.4.4.4.P 5.x.5.x.T.E # a f 4 x c.@.9 C O.h.G.%X6.d -.h.2.8.e.w.w.w.o.n.K.K.N.6.M.J.'.L.v <.i.a.D.2.h ",
"v W [ | O.6.w.&.W n r 3 ~ 5.<.4.y.4.A ` r.4.R./.8 # O # $ r t @ k v [ P o.v p A 2.k.0.w.w.w.w.R h.n.n.v.w.o.L.`.'.v q L ' [ p.2.",
"6.n h W 2.[ P.T.!.%X0.: D 3.3.<.<.s.i.U 4.r.b.M.j v 2.w.G.W. X0.R 5 4 [ o.5 i ] T 8.z.w.8.] 8.0.2.z.k.z.n.T +.W./.E 0 R 1.6.v  .",
"7.#.5 a.G.p.k.z.z.v.T : S <.4.5.<.Y v { 3.r.G.N.v o.G.Q.G.).=XoXOX$.P |.;X+.: | 8.W w.h.] T 7.w.W T 8.q.k.+.T *.*.c ) 7.a.H.K h ",
"k. Xv } b.k.c.K.n.B.w.y y s Y A ' 7.6 Y <.3.H.N.l  .1.8.w.6.w.k./.9.G a.`.I.i F o.W ] M.&.2.2.8.2.L +.O.8.O.+.z.N.E ) 4.7.l.1.' ",
"R 2.s d ] 2.O.O.6.M.h.: p ; 7 + $ [ v ; A k p.$.1 C 2.O.2.6.6.8.m.e.o W 8.*.> k h s d w L o.R R c g ! h w v v O.n.T 7 G k z 9 < ",
"q R R g 5 & h g R q * & # 9 j T P R o.R L h T Q v e 4 q 5 6 4 L v ] n q e r v 9 h r < % < 5 8 h * O 0 w h v t 5 0 q 5 s 0 G b n ",
"=X7X5X;XoX2.S.;X@X@X8.L I.'.`.%X`.Q..X>X-X;X-X6X1X#XT 5 G.G.9 P.`._.-X!.b 7.!.S.!.z.g ~.`.!.~.#Xh.c ~.#X-X%X-XoX8.n 5.{.~.2X9X9X",
"@X&X@X&X2XD.Z.;X;X7X[.x p.k.G.K.G.2.k.W./.`.Q.J. X,Xn.k Z._.O.7.!.U.}.n.j a.G.(.).j.u V.S.~.[.}.N.y S {.oXOX8X5X;Xv B V.R.@X:X6X",
"4.3.u.y.C.A.' t.E.@XS.y G  .n._.2.R k.G.^. X*X`.W. Xh.9 ] H.a.' i.b.G.R i i.Z.oX'.=.y G p.1.k.h.L B V :.`.;X3X,X-X] , ~ t.-.t.t."
};
